<?xml version="1.0" standalone="no"?>
<!DOCTYPE svg PUBLIC "-//W3C//DTD SVG 20010904//EN"
 "http://www.w3.org/TR/2001/REC-SVG-20010904/DTD/svg10.dtd">
<svg version="1.0" xmlns="http://www.w3.org/2000/svg"
 width="1193.000000pt" height="677.000000pt" viewBox="0 0 1193.000000 677.000000"
 preserveAspectRatio="xMidYMid meet">
<metadata>
Created by potrace 1.16, written by Peter Selinger 2001-2019
</metadata>
<g transform="translate(0.000000,677.000000) scale(0.100000,-0.100000)"
fill="#000000" stroke="none">
<path d="M10478 6514 c-58 -31 -65 -98 -16 -165 18 -24 40 -59 49 -78 16 -34
17 -34 24 -10 4 13 25 48 46 78 57 79 52 143 -11 176 -36 19 -57 18 -92 -1z
m110 -26 c36 -34 30 -84 -18 -148 -22 -29 -40 -58 -40 -64 0 -6 -10 5 -21 24
-12 19 -32 48 -45 63 -76 91 37 205 124 125z"/>
<path d="M3814 3437 c-2 -7 -4 -54 -2 -103 l3 -89 100 0 100 0 0 100 0 100
-98 3 c-75 2 -99 0 -103 -11z m191 -92 l0 -90 -90 0 -90 0 -3 79 c-2 44 -1 85
2 93 4 11 26 13 93 11 l88 -3 0 -90z"/>
<path d="M5740 3169 c-37 -15 -58 -38 -71 -76 -16 -51 -4 -94 46 -159 25 -32
50 -72 57 -91 15 -42 24 -42 38 1 6 18 31 59 55 91 52 66 63 110 43 163 -25
66 -100 98 -168 71z"/>
<path d="M7002 1318 c-7 -7 -12 -43 -12 -93 0 -50 5 -86 12 -93 7 -7 43 -12
93 -12 50 0 86 5 93 12 7 7 12 43 12 93 0 50 -5 86 -12 93 -7 7 -43 12 -93 12
-50 0 -86 -5 -93 -12z m183 -93 l0 -90 -90 0 -90 0 -3 79 c-2 44 -1 85 2 93 4
11 26 13 93 11 l88 -3 0 -90z"/>
<path d="M4084 1097 c-2 -7 -4 -54 -2 -103 l3 -89 100 0 100 0 0 100 0 100
-98 3 c-75 2 -99 0 -103 -11z m191 -92 l0 -90 -90 0 -90 0 -3 79 c-2 44 -1 85
2 93 4 11 26 13 93 11 l88 -3 0 -90z"/>
</g>
</svg>
