<?xml version="1.0" standalone="no"?>
<!DOCTYPE svg PUBLIC "-//W3C//DTD SVG 20010904//EN"
 "http://www.w3.org/TR/2001/REC-SVG-20010904/DTD/svg10.dtd">
<svg version="1.0" xmlns="http://www.w3.org/2000/svg"
 width="1193.000000pt" height="677.000000pt" viewBox="0 0 1193.000000 677.000000"
 preserveAspectRatio="xMidYMid meet">

<g transform="translate(0.000000,677.000000) scale(0.100000,-0.100000)"
fill="#000000" stroke="none">
<path d="M9506 6757 c3 -10 9 -15 12 -12 3 3 0 11 -7 18 -10 9 -11 8 -5 -6z"/>
<path d="M318 6693 c7 -3 16 -2 19 1 4 3 -2 6 -13 5 -11 0 -14 -3 -6 -6z"/>
<path d="M538 6653 c7 -3 16 -2 19 1 4 3 -2 6 -13 5 -11 0 -14 -3 -6 -6z"/>
<path d="M9621 6641 c-8 -5 -9 -11 -3 -15 5 -3 12 1 16 9 6 17 6 18 -13 6z"/>
<path d="M1697 6633 c-14 -14 -6 -30 21 -41 27 -12 27 -12 5 4 -28 20 -30 38
-3 31 11 -3 18 -1 14 4 -6 11 -28 12 -37 2z"/>
<path d="M1796 6624 c-3 -9 -4 -19 -1 -22 3 -3 5 1 5 9 0 11 2 11 10 -1 5 -8
10 -10 10 -5 0 6 -4 16 -9 23 -6 11 -10 10 -15 -4z"/>
<path d="M1872 6595 c1 -46 1 -47 7 -15 l7 35 17 -32 c10 -18 20 -33 22 -33 3
0 4 21 4 48 -2 46 -2 46 -9 12 -4 -19 -8 -30 -9 -25 -1 6 -10 21 -21 35 l-20
25 2 -50z"/>
<path d="M2010 6631 c0 -5 9 -7 20 -4 11 3 20 7 20 9 0 2 -9 4 -20 4 -11 0
-20 -4 -20 -9z"/>
<path d="M2108 6633 c32 -7 29 -37 -3 -31 -14 3 -25 1 -25 -3 0 -5 8 -9 18 -9
11 0 23 -10 29 -22 8 -18 9 -14 9 23 -1 40 -3 44 -26 46 -22 1 -22 1 -2 -4z"/>
<path d="M2186 6616 c-3 -13 -9 -31 -12 -39 -4 -12 0 -14 16 -10 13 4 26 0 31
-8 14 -23 11 7 -5 46 -18 41 -22 43 -30 11z m24 -21 c0 -8 -4 -15 -10 -15 -5
0 -10 7 -10 15 0 8 5 15 10 15 6 0 10 -7 10 -15z"/>
<path d="M2270 6625 c0 -8 4 -15 10 -15 5 0 7 7 4 15 -4 8 -8 15 -10 15 -2 0
-4 -7 -4 -15z"/>
<path d="M2320 6609 c0 -27 -2 -30 -16 -19 -13 12 -14 10 -3 -13 18 -40 29
-33 29 18 0 25 -2 45 -5 45 -3 0 -5 -14 -5 -31z"/>
<path d="M2372 6628 c-24 -24 -8 -79 23 -78 5 0 2 5 -7 11 -10 5 -18 21 -18
34 0 13 8 29 18 34 9 6 12 11 7 11 -6 0 -16 -5 -23 -12z"/>
<path d="M2453 6595 c0 -27 2 -38 4 -22 2 15 2 37 0 50 -2 12 -4 0 -4 -28z"/>
<path d="M2507 6633 c-3 -5 5 -8 18 -8 13 0 21 3 18 8 -2 4 -10 7 -18 7 -8 0
-16 -3 -18 -7z"/>
<path d="M2592 6628 c-24 -24 -8 -79 23 -78 5 0 2 5 -7 11 -10 5 -18 21 -18
34 0 13 8 29 18 34 9 6 12 11 7 11 -6 0 -16 -5 -23 -12z"/>
<path d="M2682 6628 c-24 -24 -8 -79 23 -78 5 0 2 5 -7 11 -20 11 -24 54 -8
64 6 4 17 1 25 -5 9 -7 15 -8 15 -2 0 5 -7 13 -16 16 -20 8 -18 8 -32 -6z"/>
<path d="M2010 6595 c0 -8 8 -11 20 -8 11 3 20 7 20 8 0 1 -9 5 -20 8 -12 3
-20 0 -20 -8z"/>
<path d="M2518 6594 c28 -21 29 -38 1 -31 -16 4 -19 3 -11 -5 15 -15 44 -2 40
18 -2 9 -14 21 -28 25 l-25 9 23 -16z"/>
<path d="M6908 6593 c6 -2 18 -2 25 0 6 3 1 5 -13 5 -14 0 -19 -2 -12 -5z"/>
<path d="M1775 6572 c-3 -8 -3 -17 0 -20 3 -3 5 0 5 6 0 7 11 12 25 12 14 0
25 -5 25 -12 0 -6 3 -9 6 -5 3 3 2 11 -3 19 -11 18 -51 18 -58 0z"/>
<path d="M1697 6558 c2 -5 10 -8 18 -8 8 0 16 3 18 8 3 4 -5 7 -18 7 -13 0
-21 -3 -18 -7z"/>
<path d="M6908 6553 c6 -2 18 -2 25 0 6 3 1 5 -13 5 -14 0 -19 -2 -12 -5z"/>
<path d="M9693 6546 c5 -15 24 -18 24 -3 0 8 -6 14 -14 14 -7 0 -12 -5 -10
-11z"/>
<path d="M5978 6543 c6 -2 18 -2 25 0 6 3 1 5 -13 5 -14 0 -19 -2 -12 -5z"/>
<path d="M6403 6543 c9 -2 23 -2 30 0 6 3 -1 5 -18 5 -16 0 -22 -2 -12 -5z"/>
<path d="M6803 6543 c9 -2 23 -2 30 0 6 3 -1 5 -18 5 -16 0 -22 -2 -12 -5z"/>
<path d="M6998 6543 c6 -2 18 -2 25 0 6 3 1 5 -13 5 -14 0 -19 -2 -12 -5z"/>
<path d="M10478 6514 c-58 -31 -65 -98 -16 -165 18 -24 40 -59 49 -78 16 -34
17 -34 24 -10 4 13 25 48 46 78 57 79 52 143 -11 176 -36 19 -57 18 -92 -1z
m110 -26 c36 -34 30 -84 -18 -148 -22 -29 -40 -58 -40 -64 0 -6 -10 5 -21 24
-12 19 -32 48 -45 63 -76 91 37 205 124 125z"/>
<path d="M6908 6503 c6 -2 18 -2 25 0 6 3 1 5 -13 5 -14 0 -19 -2 -12 -5z"/>
<path d="M11410 6498 c0 -9 7 -19 16 -22 15 -6 15 -4 3 11 -7 10 -15 20 -16
22 -2 2 -3 -3 -3 -11z"/>
<path d="M10860 6486 c0 -2 7 -7 16 -10 8 -3 12 -2 9 4 -6 10 -25 14 -25 6z"/>
<path d="M11028 6483 c7 -3 16 -2 19 1 4 3 -2 6 -13 5 -11 0 -14 -3 -6 -6z"/>
<path d="M11225 6480 c-3 -6 1 -7 9 -4 18 7 21 14 7 14 -6 0 -13 -4 -16 -10z"/>
<path d="M10683 6463 c9 -2 25 -2 35 0 9 3 1 5 -18 5 -19 0 -27 -2 -17 -5z"/>
<path d="M11098 6453 c7 -3 16 -2 19 1 4 3 -2 6 -13 5 -11 0 -14 -3 -6 -6z"/>
<path d="M11313 6453 c9 -2 23 -2 30 0 6 3 -1 5 -18 5 -16 0 -22 -2 -12 -5z"/>
<path d="M11893 6453 c9 -2 23 -2 30 0 6 3 -1 5 -18 5 -16 0 -22 -2 -12 -5z"/>
<path d="M6298 6443 c7 -3 16 -2 19 1 4 3 -2 6 -13 5 -11 0 -14 -3 -6 -6z"/>
<path d="M6793 6443 c9 -2 23 -2 30 0 6 3 -1 5 -18 5 -16 0 -22 -2 -12 -5z"/>
<path d="M11465 6431 c-3 -5 -1 -12 5 -16 5 -3 10 1 10 9 0 18 -6 21 -15 7z"/>
<path d="M5988 6423 c7 -3 16 -2 19 1 4 3 -2 6 -13 5 -11 0 -14 -3 -6 -6z"/>
<path d="M11227 6419 c7 -7 15 -10 18 -7 3 3 -2 9 -12 12 -14 6 -15 5 -6 -5z"/>
<path d="M6788 6403 c6 -2 18 -2 25 0 6 3 1 5 -13 5 -14 0 -19 -2 -12 -5z"/>
<path d="M6043 6393 c9 -2 23 -2 30 0 6 3 -1 5 -18 5 -16 0 -22 -2 -12 -5z"/>
<path d="M6298 6393 c6 -2 18 -2 25 0 6 3 1 5 -13 5 -14 0 -19 -2 -12 -5z"/>
<path d="M6863 6393 c9 -2 23 -2 30 0 6 3 -1 5 -18 5 -16 0 -22 -2 -12 -5z"/>
<path d="M7033 6393 c9 -2 23 -2 30 0 6 3 -1 5 -18 5 -16 0 -22 -2 -12 -5z"/>
<path d="M7228 6393 c7 -3 16 -2 19 1 4 3 -2 6 -13 5 -11 0 -14 -3 -6 -6z"/>
<path d="M9845 6389 c-4 -6 -5 -12 -2 -15 2 -3 7 2 10 11 7 17 1 20 -8 4z"/>
<path d="M5863 6383 c9 -2 23 -2 30 0 6 3 -1 5 -18 5 -16 0 -22 -2 -12 -5z"/>
<path d="M10816 6341 c-4 -5 3 -7 14 -4 23 6 26 13 6 13 -8 0 -17 -4 -20 -9z"/>
<path d="M11473 6343 c9 -2 25 -2 35 0 9 3 1 5 -18 5 -19 0 -27 -2 -17 -5z"/>
<path d="M10990 6326 c0 -2 7 -7 16 -10 8 -3 12 -2 9 4 -6 10 -25 14 -25 6z"/>
<path d="M11260 6320 c8 -5 20 -10 25 -10 6 0 3 5 -5 10 -8 5 -19 10 -25 10
-5 0 -3 -5 5 -10z"/>
<path d="M9925 6299 c-4 -6 -5 -12 -2 -15 2 -3 7 2 10 11 7 17 1 20 -8 4z"/>
<path d="M1298 6293 c7 -3 16 -2 19 1 4 3 -2 6 -13 5 -11 0 -14 -3 -6 -6z"/>
<path d="M10718 6293 c6 -2 18 -2 25 0 6 3 1 5 -13 5 -14 0 -19 -2 -12 -5z"/>
<path d="M10918 6293 c7 -3 16 -2 19 1 4 3 -2 6 -13 5 -11 0 -14 -3 -6 -6z"/>
<path d="M11378 6293 c7 -3 16 -2 19 1 4 3 -2 6 -13 5 -11 0 -14 -3 -6 -6z"/>
<path d="M11838 6293 c7 -3 16 -2 19 1 4 3 -2 6 -13 5 -11 0 -14 -3 -6 -6z"/>
<path d="M1413 6240 c0 -25 2 -35 4 -22 2 12 2 32 0 45 -2 12 -4 2 -4 -23z"/>
<path d="M1763 6240 c0 -25 2 -35 4 -22 2 12 2 32 0 45 -2 12 -4 2 -4 -23z"/>
<path d="M9955 6270 c3 -5 8 -10 11 -10 2 0 4 5 4 10 0 6 -5 10 -11 10 -5 0
-7 -4 -4 -10z"/>
<path d="M1342 6250 c0 -14 2 -19 5 -12 2 6 2 18 0 25 -3 6 -5 1 -5 -13z"/>
<path d="M10897 6259 c7 -7 15 -10 18 -7 3 3 -2 9 -12 12 -14 6 -15 5 -6 -5z"/>
<path d="M11817 6259 c7 -7 15 -10 18 -7 3 3 -2 9 -12 12 -14 6 -15 5 -6 -5z"/>
<path d="M1668 6243 c7 -3 16 -2 19 1 4 3 -2 6 -13 5 -11 0 -14 -3 -6 -6z"/>
<path d="M1298 6203 c7 -3 16 -2 19 1 4 3 -2 6 -13 5 -11 0 -14 -3 -6 -6z"/>
<path d="M1915 6095 c0 -36 3 -65 8 -65 4 0 7 29 7 65 0 36 -3 65 -7 65 -5 0
-8 -29 -8 -65z"/>
<path d="M7222 6115 c1 -45 1 -47 7 -15 l6 35 22 -35 c13 -19 23 -29 23 -23 0
7 -7 21 -15 30 -8 10 -21 27 -29 38 -14 19 -15 16 -14 -30z"/>
<path d="M7322 6122 c-1 -30 2 -44 13 -48 25 -10 45 15 44 55 l-2 36 -6 -40
c-4 -26 -12 -41 -23 -43 -13 -3 -18 6 -21 40 l-4 43 -1 -43z"/>
<path d="M7410 6115 c0 -43 1 -45 28 -44 23 2 24 2 5 6 -27 5 -31 30 -5 36 16
4 16 5 0 6 -26 2 -22 29 5 34 19 4 18 4 -5 6 -27 1 -28 -1 -28 -44z"/>
<path d="M7496 6115 c9 -25 18 -45 20 -45 5 0 19 34 28 70 3 14 -2 7 -13 -15
l-18 -40 -7 32 c-4 18 -11 35 -16 38 -5 3 -2 -15 6 -40z"/>
<path d="M7591 6138 c-11 -29 -23 -77 -15 -60 7 15 36 16 52 0 8 -8 7 5 -4 35
-9 26 -18 47 -20 47 -3 0 -8 -10 -13 -22z m17 -37 c-15 -5 -19 4 -11 24 6 18
7 18 13 -1 4 -10 3 -21 -2 -23z"/>
<path d="M9230 6151 c36 -10 38 -39 3 -44 l-28 -4 28 -2 c32 -1 46 21 27 44
-7 8 -22 15 -34 14 -19 -1 -18 -2 4 -8z"/>
<path d="M1448 6143 c6 -2 18 -2 25 0 6 3 1 5 -13 5 -14 0 -19 -2 -12 -5z"/>
<path d="M9463 6085 c0 -33 2 -45 4 -27 2 18 2 45 0 60 -2 15 -4 0 -4 -33z"/>
<path d="M9543 6100 c0 -25 2 -35 4 -22 2 12 2 32 0 45 -2 12 -4 2 -4 -23z"/>
<path d="M9590 6136 c0 -2 7 -7 16 -10 8 -3 12 -2 9 4 -6 10 -25 14 -25 6z"/>
<path d="M9322 6115 c-7 -8 -8 -15 -3 -15 5 0 12 -8 14 -17 3 -10 5 -3 6 15 1
36 1 37 -17 17z"/>
<path d="M9570 6101 c0 -19 19 -41 35 -41 5 0 2 5 -7 11 -25 14 -22 27 5 31
20 3 20 4 -5 9 -22 5 -28 2 -28 -10z"/>
<path d="M1238 6093 c7 -3 16 -2 19 1 4 3 -2 6 -13 5 -11 0 -14 -3 -6 -6z"/>
<path d="M1453 6093 c9 -2 23 -2 30 0 6 3 -1 5 -18 5 -16 0 -22 -2 -12 -5z"/>
<path d="M1668 6093 c7 -3 16 -2 19 1 4 3 -2 6 -13 5 -11 0 -14 -3 -6 -6z"/>
<path d="M1777 6082 c-24 -26 -21 -32 11 -31 24 2 25 2 4 6 -23 4 -23 5 -6 24
9 10 15 19 12 19 -3 0 -12 -8 -21 -18z"/>
<path d="M9293 6086 c1 -11 9 -21 17 -23 10 -3 11 -2 4 4 -6 4 -14 15 -17 23
-5 11 -6 9 -4 -4z"/>
<path d="M10412 6058 c-17 -17 -15 -53 3 -68 17 -14 45 -7 45 12 0 10 -3 9 -9
-1 -14 -21 -41 -5 -41 24 0 29 27 45 42 24 8 -12 9 -11 5 1 -5 19 -29 24 -45
8z"/>
<path d="M10491 6023 c1 -27 4 -38 6 -25 2 12 8 22 12 22 5 0 16 -10 25 -22
14 -20 15 -20 7 -2 -6 11 -6 26 -1 34 11 18 -6 40 -31 40 -16 0 -19 -7 -18
-47z m42 22 c1 -5 -6 -11 -15 -13 -11 -2 -18 3 -18 13 0 17 30 18 33 0z"/>
<path d="M10583 6025 c0 -27 2 -38 4 -22 2 15 2 37 0 50 -2 12 -4 0 -4 -28z"/>
<path d="M10631 6056 c-9 -11 -6 -18 16 -34 31 -22 24 -44 -7 -24 -11 7 -20 8
-20 3 0 -12 37 -24 50 -16 18 11 10 32 -17 44 -27 12 -27 13 -8 27 10 8 14 14
8 14 -6 0 -16 -6 -22 -14z"/>
<path d="M10722 6058 c-7 -7 -12 -16 -12 -22 0 -5 6 -2 13 9 17 22 37 12 37
-20 0 -32 -20 -42 -37 -20 -7 11 -13 14 -13 8 0 -6 7 -16 15 -23 32 -26 63 38
33 68 -7 7 -15 12 -18 12 -3 0 -11 -5 -18 -12z"/>
<path d="M10922 6025 c1 -45 1 -47 7 -15 l6 35 22 -35 c13 -19 23 -29 23 -23
0 7 -7 21 -15 30 -8 10 -21 27 -29 38 -14 19 -15 16 -14 -30z"/>
<path d="M11032 6058 c-7 -7 -12 -16 -12 -22 0 -5 6 -2 13 9 17 22 37 12 37
-20 0 -32 -20 -42 -37 -20 -7 11 -13 14 -13 8 0 -6 7 -16 15 -23 32 -26 63 38
33 68 -7 7 -15 12 -18 12 -3 0 -11 -5 -18 -12z"/>
<path d="M11138 6063 c12 -2 22 -11 22 -19 0 -8 -10 -15 -22 -15 -15 -1 -17
-3 -7 -6 9 -2 21 -13 26 -25 7 -17 9 -13 9 23 -1 40 -3 44 -26 46 -22 1 -22 1
-2 -4z"/>
<path d="M11207 6062 c6 -4 13 -25 16 -47 l4 -40 1 42 c2 30 7 43 20 46 9 3 1
5 -18 6 -19 0 -30 -3 -23 -7z"/>
<path d="M11287 6063 c-4 -3 -7 -11 -7 -17 0 -7 3 -7 8 0 4 7 16 14 27 17 19
5 19 5 -1 6 -11 0 -24 -2 -27 -6z"/>
<path d="M11280 6021 c0 -4 11 -6 25 -3 14 2 25 6 25 8 0 2 -11 4 -25 4 -14 0
-25 -4 -25 -9z"/>
<path d="M4041 5978 c1 -24 3 -35 6 -25 2 9 11 17 18 17 8 0 16 4 19 9 4 5 -3
7 -14 4 -14 -4 -20 0 -20 12 0 12 6 16 20 12 11 -3 18 -1 14 4 -3 5 -14 9 -25
9 -16 0 -19 -7 -18 -42z"/>
<path d="M7142 5998 c-24 -24 -8 -79 23 -78 5 0 2 5 -7 11 -10 5 -18 21 -18
34 0 13 8 29 18 34 9 6 12 11 7 11 -6 0 -16 -5 -23 -12z"/>
<path d="M7232 5998 c-17 -17 -15 -53 3 -68 21 -17 45 -5 44 22 l-2 23 -4 -23
c-6 -30 -37 -25 -41 7 -5 32 12 48 33 31 8 -7 15 -8 15 -2 0 5 -7 13 -16 16
-20 8 -18 8 -32 -6z"/>
<path d="M7321 5963 c1 -26 4 -38 6 -25 6 28 17 28 30 0 8 -18 9 -14 9 23 -1
38 -4 44 -23 47 -21 3 -23 0 -22 -45z m39 22 c0 -8 -7 -15 -15 -15 -8 0 -15 7
-15 15 0 8 7 15 15 15 8 0 15 -7 15 -15z"/>
<path d="M7400 5965 c0 -37 3 -45 18 -45 24 0 42 19 42 45 0 26 -18 45 -42 45
-15 0 -18 -8 -18 -45z m45 0 c0 -20 -6 -31 -17 -33 -15 -3 -18 4 -18 33 0 29
3 36 18 33 11 -2 17 -13 17 -33z"/>
<path d="M7507 6003 c-3 -5 5 -8 18 -8 13 0 21 3 18 8 -2 4 -10 7 -18 7 -8 0
-16 -3 -18 -7z"/>
<path d="M7590 5966 c0 -39 3 -46 19 -46 11 0 22 4 25 9 4 5 -3 7 -14 4 -14
-4 -20 0 -20 12 0 12 6 16 18 12 15 -3 19 1 18 22 -1 19 -7 27 -23 29 -21 3
-23 -1 -23 -42z m40 19 c0 -8 -7 -15 -15 -15 -8 0 -15 7 -15 15 0 8 7 15 15
15 8 0 15 -7 15 -15z"/>
<path d="M7696 5994 c-3 -9 -4 -19 -1 -22 3 -3 5 1 5 9 0 11 2 11 10 -1 5 -8
10 -10 10 -5 0 6 -4 16 -9 23 -6 11 -10 10 -15 -4z"/>
<path d="M9109 5993 c-13 -17 -13 -17 6 -3 11 8 22 16 24 17 2 2 0 3 -6 3 -6
0 -17 -8 -24 -17z"/>
<path d="M10808 5988 c6 -6 18 -8 28 -6 14 3 12 5 -9 10 -19 3 -25 2 -19 -4z"/>
<path d="M9195 5980 c-3 -6 1 -7 9 -4 18 7 21 14 7 14 -6 0 -13 -4 -16 -10z"/>
<path d="M9260 5951 c0 -23 2 -41 4 -41 8 0 12 71 4 76 -4 3 -8 -13 -8 -35z"/>
<path d="M9313 5950 c0 -25 2 -35 4 -22 2 12 2 32 0 45 -2 12 -4 2 -4 -23z"/>
<path d="M9347 5979 c7 -7 15 -10 18 -7 3 3 -2 9 -12 12 -14 6 -15 5 -6 -5z"/>
<path d="M9490 5986 c0 -2 7 -7 16 -10 8 -3 12 -2 9 4 -6 10 -25 14 -25 6z"/>
<path d="M9628 5983 c7 -3 16 -2 19 1 4 3 -2 6 -13 5 -11 0 -14 -3 -6 -6z"/>
<path d="M11298 5983 c6 -2 18 -2 25 0 6 3 1 5 -13 5 -14 0 -19 -2 -12 -5z"/>
<path d="M3923 5973 c9 -2 23 -2 30 0 6 3 -1 5 -18 5 -16 0 -22 -2 -12 -5z"/>
<path d="M7493 5961 c2 -29 31 -51 47 -35 8 8 4 10 -12 10 -15 -1 -24 7 -29
24 -8 25 -8 25 -6 1z"/>
<path d="M7551 5964 c0 -11 3 -14 6 -6 3 7 2 16 -1 19 -3 4 -6 -2 -5 -13z"/>
<path d="M9215 5960 c-18 -8 -19 -9 -1 -9 12 -1 16 -6 13 -16 -4 -8 -2 -17 3
-20 6 -4 10 7 10 24 0 17 -1 31 -2 30 -2 0 -12 -4 -23 -9z"/>
<path d="M9402 5940 c0 -19 2 -27 5 -17 2 9 2 25 0 35 -3 9 -5 1 -5 -18z"/>
<path d="M9470 5959 c0 -5 11 -9 25 -9 14 0 25 2 25 4 0 2 -11 6 -25 8 -14 3
-25 1 -25 -3z"/>
<path d="M9592 5940 c0 -19 2 -27 5 -17 2 9 2 25 0 35 -3 9 -5 1 -5 -18z"/>
<path d="M7675 5942 c-3 -8 -3 -17 0 -20 3 -3 5 0 5 6 0 7 11 12 25 12 14 0
25 -5 25 -12 0 -6 3 -9 6 -5 3 3 2 11 -3 19 -11 18 -51 18 -58 0z"/>
<path d="M3610 5425 c0 -37 3 -45 19 -45 10 0 25 8 32 18 11 14 11 15 -1 5
-19 -18 -40 -16 -40 2 0 8 6 15 14 15 8 0 17 4 20 9 4 5 -3 7 -14 4 -14 -4
-20 0 -20 12 0 12 6 16 20 12 11 -3 18 -1 14 4 -3 5 -14 9 -25 9 -16 0 -19 -7
-19 -45z"/>
<path d="M3700 5425 c0 -43 1 -45 28 -44 23 2 24 2 5 6 -27 5 -31 30 -5 36 16
4 16 5 0 6 -26 2 -22 29 5 34 19 4 18 4 -5 6 -27 1 -28 -1 -28 -44z"/>
<path d="M3782 5428 c-2 -46 -1 -48 26 -47 22 1 23 2 5 6 -18 3 -23 13 -26 46
l-4 42 -1 -47z"/>
<path d="M3957 5463 c-10 -10 -8 -25 2 -19 5 3 11 -3 14 -14 3 -13 0 -20 -9
-20 -8 0 -14 6 -15 13 0 6 -5 1 -10 -12 -5 -13 -7 -26 -4 -29 3 -3 5 0 5 6 0
16 33 15 48 0 8 -8 7 5 -4 35 -17 50 -17 50 -27 40z"/>
<path d="M4076 5425 c9 -25 20 -42 25 -39 5 3 9 10 9 15 0 6 -4 8 -9 5 -5 -4
-12 7 -16 24 -4 16 -10 32 -15 35 -5 3 -2 -15 6 -40z"/>
<path d="M4116 5455 c-3 -9 -6 -22 -5 -28 0 -7 5 -1 10 12 5 13 8 26 5 28 -2
2 -6 -3 -10 -12z"/>
<path d="M4163 5425 c0 -27 2 -38 4 -22 2 15 2 37 0 50 -2 12 -4 0 -4 -28z"/>
<path d="M4211 5456 c-9 -11 -6 -18 16 -34 31 -22 24 -44 -7 -24 -11 7 -20 8
-20 3 0 -12 37 -24 50 -16 18 11 10 32 -17 44 -27 12 -27 13 -8 27 10 8 14 14
8 14 -6 0 -16 -6 -22 -14z"/>
<path d="M4280 5466 c0 -9 39 -13 51 -5 10 6 4 9 -18 9 -18 0 -33 -2 -33 -4z"/>
<path d="M4386 5454 c-3 -9 -4 -19 -1 -22 3 -3 5 1 5 9 0 11 2 11 10 -1 5 -8
10 -10 10 -5 0 6 -4 16 -9 23 -6 11 -10 10 -15 -4z"/>
<path d="M4365 5402 c-3 -8 -3 -17 0 -20 3 -3 5 0 5 6 0 7 11 12 25 12 14 0
25 -5 25 -12 0 -6 3 -9 6 -5 3 3 2 11 -3 19 -11 18 -51 18 -58 0z"/>
<path d="M3860 5389 c0 -5 9 -9 20 -9 11 0 20 2 20 4 0 2 -9 6 -20 9 -11 3
-20 1 -20 -4z"/>
<path d="M2011 5323 c1 -27 4 -38 6 -25 2 12 8 22 12 22 5 0 16 -10 25 -22 14
-20 15 -20 7 -2 -6 11 -6 26 -1 34 11 18 -6 40 -31 40 -16 0 -19 -7 -18 -47z
m42 22 c1 -5 -6 -11 -15 -13 -11 -2 -18 3 -18 13 0 17 30 18 33 0z"/>
<path d="M2100 5325 c0 -43 1 -45 28 -44 23 2 24 2 5 6 -27 5 -31 30 -5 36 16
4 16 5 0 6 -26 2 -22 29 5 34 19 4 18 4 -5 6 -27 1 -28 -1 -28 -44z"/>
<path d="M2184 5355 c-8 -19 1 -31 26 -38 11 -3 18 -1 14 4 -3 5 -12 9 -20 9
-8 0 -14 7 -14 16 0 11 6 15 20 11 11 -3 18 -1 14 4 -8 14 -34 11 -40 -6z"/>
<path d="M2263 5325 c0 -27 2 -38 4 -22 2 15 2 37 0 50 -2 12 -4 0 -4 -28z"/>
<path d="M2310 5325 c0 -38 3 -45 19 -45 11 0 22 4 25 9 4 5 -3 7 -14 4 -17
-5 -20 0 -20 32 0 32 3 37 20 32 11 -3 18 -1 14 4 -3 5 -14 9 -25 9 -16 0 -19
-7 -19 -45z"/>
<path d="M2400 5325 c0 -43 1 -45 28 -44 23 2 24 2 5 6 -27 5 -31 30 -5 36 16
4 16 5 0 6 -26 2 -22 29 5 34 19 4 18 4 -5 6 -27 1 -28 -1 -28 -44z"/>
<path d="M2482 5323 c1 -37 2 -41 5 -15 3 19 9 30 15 26 6 -4 6 2 -1 15 -17
31 -21 26 -19 -26z"/>
<path d="M2531 5342 c-1 -21 -5 -31 -12 -26 -6 4 -5 -4 2 -17 l14 -24 3 28 c2
15 1 37 -1 50 -3 15 -5 12 -6 -11z"/>
<path d="M2587 5363 c-3 -5 5 -8 18 -8 13 0 21 3 18 8 -2 4 -10 7 -18 7 -8 0
-16 -3 -18 -7z"/>
<path d="M2673 5325 c0 -27 2 -38 4 -22 2 15 2 37 0 50 -2 12 -4 0 -4 -28z"/>
<path d="M2737 5363 c-10 -10 -8 -25 2 -19 5 3 11 -3 14 -14 3 -13 0 -20 -9
-20 -8 0 -14 6 -15 13 0 6 -5 1 -10 -12 -5 -13 -7 -26 -4 -29 3 -3 5 0 5 6 0
16 33 15 48 0 8 -8 7 5 -4 35 -17 50 -17 50 -27 40z"/>
<path d="M6898 5344 c-16 -8 -28 -17 -28 -20 0 -2 10 1 22 7 12 6 33 15 47 20
20 6 22 7 6 8 -11 0 -32 -7 -47 -15z"/>
<path d="M6971 5346 c2 -2 15 -9 29 -15 24 -11 24 -11 6 3 -16 13 -49 24 -35
12z"/>
<path d="M2361 5324 c0 -11 3 -14 6 -6 3 7 2 16 -1 19 -3 4 -6 -2 -5 -13z"/>
<path d="M2571 5324 c0 -11 3 -14 6 -6 3 7 2 16 -1 19 -3 4 -6 -2 -5 -13z"/>
<path d="M2187 5288 c2 -5 10 -8 18 -8 8 0 16 3 18 8 3 4 -5 7 -18 7 -13 0
-21 -3 -18 -7z"/>
<path d="M2587 5288 c2 -5 10 -8 18 -8 8 0 16 3 18 8 3 4 -5 7 -18 7 -13 0
-21 -3 -18 -7z"/>
<path d="M2818 5283 c6 -2 18 -2 25 0 6 3 1 5 -13 5 -14 0 -19 -2 -12 -5z"/>
<path d="M6851 5259 c-1 -27 9 -49 38 -90 21 -30 42 -65 46 -78 5 -18 9 -20
16 -10 5 8 9 19 9 24 0 6 -5 3 -10 -5 -8 -12 -10 -12 -10 -1 0 7 -17 36 -37
64 -21 28 -40 68 -44 91 l-6 41 -2 -36z"/>
<path d="M7032 5259 c-1 -21 -13 -52 -30 -75 -40 -56 -48 -74 -18 -39 41 47
58 83 53 118 l-4 32 -1 -36z"/>
<path d="M2212 5238 c-24 -24 -8 -79 23 -78 5 0 2 5 -7 11 -20 11 -24 54 -6
65 6 4 17 -1 25 -11 11 -16 13 -16 13 -3 0 9 -7 19 -16 22 -20 8 -18 8 -32 -6z"/>
<path d="M2426 5205 c9 -25 20 -42 25 -39 5 3 9 10 9 15 0 6 -4 8 -9 5 -5 -4
-12 7 -16 24 -4 16 -10 32 -15 35 -5 3 -2 -15 6 -40z"/>
<path d="M2466 5235 c-3 -9 -6 -22 -5 -28 0 -7 5 -1 10 12 5 13 8 26 5 28 -2
2 -6 -3 -10 -12z"/>
<path d="M2522 5238 c-7 -7 -12 -16 -12 -22 0 -5 6 -2 13 9 17 22 37 12 37
-20 0 -32 -20 -42 -37 -20 -7 11 -13 14 -13 8 0 -6 7 -16 15 -23 32 -26 63 38
33 68 -7 7 -15 12 -18 12 -3 0 -11 -5 -18 -12z"/>
<path d="M2611 5236 c-9 -11 -6 -18 16 -34 31 -22 24 -44 -7 -24 -11 7 -20 8
-20 3 0 -12 37 -24 50 -16 18 11 11 32 -16 43 -26 12 -24 38 3 28 8 -3 11 -1
8 4 -9 14 -21 12 -34 -4z"/>
<path d="M10562 5195 c0 -16 2 -22 5 -12 2 9 2 23 0 30 -3 6 -5 -1 -5 -18z"/>
<path d="M2300 5169 c0 -5 9 -9 20 -9 11 0 20 2 20 4 0 2 -9 6 -20 9 -11 3
-20 1 -20 -4z"/>
<path d="M5263 5043 c9 -2 23 -2 30 0 6 3 -1 5 -18 5 -16 0 -22 -2 -12 -5z"/>
<path d="M8158 5024 c-61 -33 -65 -97 -9 -175 21 -30 42 -65 46 -78 5 -18 9
-20 16 -10 5 8 9 19 9 24 0 6 -5 3 -10 -5 -7 -11 -10 -12 -10 -2 0 8 -18 39
-40 69 -58 81 -54 146 9 173 96 39 158 -65 93 -156 -15 -21 -32 -46 -37 -54
-14 -25 10 1 44 49 48 68 41 135 -19 166 -36 19 -57 18 -92 -1z"/>
<path d="M5578 5023 c7 -3 16 -2 19 1 4 3 -2 6 -13 5 -11 0 -14 -3 -6 -6z"/>
<path d="M6658 5023 c6 -2 18 -2 25 0 6 3 1 5 -13 5 -14 0 -19 -2 -12 -5z"/>
<path d="M10548 5023 c6 -2 18 -2 25 0 6 3 1 5 -13 5 -14 0 -19 -2 -12 -5z"/>
<path d="M8873 5013 c9 -2 23 -2 30 0 6 3 -1 5 -18 5 -16 0 -22 -2 -12 -5z"/>
<path d="M5258 5003 c6 -2 18 -2 25 0 6 3 1 5 -13 5 -14 0 -19 -2 -12 -5z"/>
<path d="M5648 4993 c7 -3 16 -2 19 1 4 3 -2 6 -13 5 -11 0 -14 -3 -6 -6z"/>
<path d="M5903 4993 c9 -2 23 -2 30 0 6 3 -1 5 -18 5 -16 0 -22 -2 -12 -5z"/>
<path d="M9200 4996 c0 -2 7 -7 16 -10 8 -3 12 -2 9 4 -6 10 -25 14 -25 6z"/>
<path d="M6658 4973 c6 -2 18 -2 25 0 6 3 1 5 -13 5 -14 0 -19 -2 -12 -5z"/>
<path d="M6758 4973 c7 -3 16 -2 19 1 4 3 -2 6 -13 5 -11 0 -14 -3 -6 -6z"/>
<path d="M7023 4973 c9 -2 23 -2 30 0 6 3 -1 5 -18 5 -16 0 -22 -2 -12 -5z"/>
<path d="M7213 4973 c9 -2 23 -2 30 0 6 3 -1 5 -18 5 -16 0 -22 -2 -12 -5z"/>
<path d="M9423 4963 c9 -2 23 -2 30 0 6 3 -1 5 -18 5 -16 0 -22 -2 -12 -5z"/>
<path d="M8363 4923 c9 -2 23 -2 30 0 6 3 -1 5 -18 5 -16 0 -22 -2 -12 -5z"/>
<path d="M10571 4914 c0 -11 3 -14 6 -6 3 7 2 16 -1 19 -3 4 -6 -2 -5 -13z"/>
<path d="M5398 4893 c6 -2 18 -2 25 0 6 3 1 5 -13 5 -14 0 -19 -2 -12 -5z"/>
<path d="M5678 4873 c7 -3 16 -2 19 1 4 3 -2 6 -13 5 -11 0 -14 -3 -6 -6z"/>
<path d="M6933 4873 c9 -2 25 -2 35 0 9 3 1 5 -18 5 -19 0 -27 -2 -17 -5z"/>
<path d="M10545 4869 c-4 -6 -5 -12 -2 -15 2 -3 7 2 10 11 7 17 1 20 -8 4z"/>
<path d="M10586 4867 c3 -10 9 -15 12 -12 3 3 0 11 -7 18 -10 9 -11 8 -5 -6z"/>
<path d="M8353 4863 c9 -2 25 -2 35 0 9 3 1 5 -18 5 -19 0 -27 -2 -17 -5z"/>
<path d="M5398 4853 c6 -2 18 -2 25 0 6 3 1 5 -13 5 -14 0 -19 -2 -12 -5z"/>
<path d="M4953 4843 c9 -2 23 -2 30 0 6 3 -1 5 -18 5 -16 0 -22 -2 -12 -5z"/>
<path d="M5748 4843 c7 -3 16 -2 19 1 4 3 -2 6 -13 5 -11 0 -14 -3 -6 -6z"/>
<path d="M6768 4823 c7 -3 16 -2 19 1 4 3 -2 6 -13 5 -11 0 -14 -3 -6 -6z"/>
<path d="M7013 4823 c9 -2 23 -2 30 0 6 3 -1 5 -18 5 -16 0 -22 -2 -12 -5z"/>
<path d="M7128 4823 c7 -3 16 -2 19 1 4 3 -2 6 -13 5 -11 0 -14 -3 -6 -6z"/>
<path d="M8758 4813 c7 -3 16 -2 19 1 4 3 -2 6 -13 5 -11 0 -14 -3 -6 -6z"/>
<path d="M8863 4813 c9 -2 23 -2 30 0 6 3 -1 5 -18 5 -16 0 -22 -2 -12 -5z"/>
<path d="M5403 4803 c9 -2 23 -2 30 0 6 3 -1 5 -18 5 -16 0 -22 -2 -12 -5z"/>
<path d="M6678 4783 c6 -2 18 -2 25 0 6 3 1 5 -13 5 -14 0 -19 -2 -12 -5z"/>
<path d="M5728 4753 c7 -3 16 -2 19 1 4 3 -2 6 -13 5 -11 0 -14 -3 -6 -6z"/>
<path d="M10545 4739 c-4 -6 -5 -12 -2 -15 2 -3 7 2 10 11 7 17 1 20 -8 4z"/>
<path d="M10586 4737 c3 -10 9 -15 12 -12 3 3 0 11 -7 18 -10 9 -11 8 -5 -6z"/>
<path d="M5680 4566 c0 -2 8 -10 18 -17 15 -13 16 -12 3 4 -13 16 -21 21 -21
13z"/>
<path d="M10382 4518 c-24 -24 -8 -79 23 -78 5 0 2 5 -7 11 -10 5 -18 21 -18
34 0 13 8 29 18 34 9 6 12 11 7 11 -6 0 -16 -5 -23 -12z"/>
<path d="M10461 4483 c1 -27 4 -38 6 -25 2 12 8 22 12 22 5 0 16 -10 25 -22
15 -21 16 -21 7 -2 -6 12 -7 24 -4 28 3 3 -3 6 -15 6 -13 0 -22 6 -22 15 0 18
21 20 40 3 12 -11 12 -10 1 5 -7 9 -22 17 -32 17 -16 0 -19 -7 -18 -47z"/>
<path d="M10553 4485 c0 -27 2 -38 4 -22 2 15 2 37 0 50 -2 12 -4 0 -4 -28z"/>
<path d="M10601 4516 c-9 -11 -6 -18 16 -34 31 -22 24 -44 -7 -24 -11 7 -20 8
-20 3 0 -12 37 -24 50 -16 18 11 10 32 -17 44 -27 12 -27 13 -8 27 10 8 14 14
8 14 -6 0 -16 -6 -22 -14z"/>
<path d="M10692 4518 c-30 -30 1 -94 33 -68 20 17 19 66 -1 74 -20 8 -18 8
-32 -6z m33 -34 c0 -19 -5 -29 -15 -29 -16 0 -25 28 -16 51 10 25 31 10 31
-22z"/>
<path d="M10897 4523 c-14 -14 -6 -30 21 -41 27 -12 27 -12 5 4 -28 20 -30 38
-3 31 11 -3 18 -1 14 4 -6 11 -28 12 -37 2z"/>
<path d="M11070 4519 c0 -5 5 -7 10 -4 6 4 17 1 25 -5 9 -7 15 -8 15 -2 0 10
-23 22 -41 22 -5 0 -9 -5 -9 -11z"/>
<path d="M10771 4468 c-1 -24 3 -28 27 -27 22 1 23 2 5 6 -13 2 -24 13 -26 26
-4 18 -5 17 -6 -5z"/>
<path d="M11020 4464 c0 -12 -6 -15 -21 -11 -16 4 -19 3 -11 -5 14 -14 42 -3
42 17 0 8 -2 15 -5 15 -3 0 -5 -7 -5 -16z"/>
<path d="M10890 4462 c0 -18 29 -27 43 -13 9 9 8 11 -7 5 -11 -4 -21 -2 -27 7
-6 10 -9 11 -9 1z"/>
<path d="M11105 4460 c-4 -6 -13 -9 -21 -6 -8 3 -14 1 -14 -4 0 -6 6 -10 13
-10 18 0 43 18 35 25 -3 4 -9 1 -13 -5z"/>
<path d="M1542 4435 c0 -16 2 -22 5 -12 2 9 2 23 0 30 -3 6 -5 -1 -5 -18z"/>
<path d="M998 4373 c7 -3 16 -2 19 1 4 3 -2 6 -13 5 -11 0 -14 -3 -6 -6z"/>
<path d="M5218 4353 c7 -3 16 -2 19 1 4 3 -2 6 -13 5 -11 0 -14 -3 -6 -6z"/>
<path d="M5164 4334 c-18 -14 -18 -14 6 -3 31 14 36 19 24 19 -6 0 -19 -7 -30
-16z"/>
<path d="M5251 4346 c2 -2 15 -9 29 -15 24 -11 24 -11 6 3 -16 13 -49 24 -35
12z"/>
<path d="M498 4333 c7 -3 16 -2 19 1 4 3 -2 6 -13 5 -11 0 -14 -3 -6 -6z"/>
<path d="M6528 4313 c7 -3 16 -2 19 1 4 3 -2 6 -13 5 -11 0 -14 -3 -6 -6z"/>
<path d="M593 4303 c9 -2 23 -2 30 0 6 3 -1 5 -18 5 -16 0 -22 -2 -12 -5z"/>
<path d="M428 4293 c6 -2 18 -2 25 0 6 3 1 5 -13 5 -14 0 -19 -2 -12 -5z"/>
<path d="M5131 4259 c-1 -23 6 -44 17 -56 9 -10 13 -13 8 -5 -6 8 -13 32 -17
55 l-6 42 -2 -36z"/>
<path d="M5312 4259 c-1 -23 -14 -52 -34 -80 -17 -24 -24 -38 -15 -30 33 27
58 80 54 113 l-4 33 -1 -36z"/>
<path d="M1521 4214 c0 -11 3 -14 6 -6 3 7 2 16 -1 19 -3 4 -6 -2 -5 -13z"/>
<path d="M9951 4214 c0 -11 3 -14 6 -6 3 7 2 16 -1 19 -3 4 -6 -2 -5 -13z"/>
<path d="M10043 4185 c0 -27 2 -38 4 -22 2 15 2 37 0 50 -2 12 -4 0 -4 -28z"/>
<path d="M10256 4206 c-3 -13 -9 -31 -12 -39 -4 -12 0 -14 16 -10 13 4 26 0
31 -8 14 -23 11 7 -5 46 -18 41 -22 43 -30 11z m24 -21 c0 -8 -4 -15 -10 -15
-5 0 -10 7 -10 15 0 8 5 15 10 15 6 0 10 -7 10 -15z"/>
<path d="M10381 4183 c1 -26 4 -38 6 -25 6 28 17 28 30 0 8 -18 9 -14 9 23 -1
38 -4 44 -23 47 -21 3 -23 0 -22 -45z m39 22 c0 -8 -7 -15 -15 -15 -8 0 -15 7
-15 15 0 8 7 15 15 15 8 0 15 -7 15 -15z"/>
<path d="M10460 4185 c0 -43 1 -45 28 -44 23 2 24 2 5 6 -27 5 -31 30 -5 36
16 4 16 5 0 6 -26 2 -22 29 5 34 19 4 18 4 -5 6 -27 1 -28 -1 -28 -44z"/>
<path d="M10541 4214 c0 -11 3 -14 6 -6 3 7 2 16 -1 19 -3 4 -6 -2 -5 -13z"/>
<path d="M10642 4218 c-24 -24 -8 -79 23 -78 5 0 2 5 -7 11 -20 11 -24 54 -8
64 6 4 17 1 25 -5 9 -7 15 -8 15 -2 0 5 -7 13 -16 16 -20 8 -18 8 -32 -6z"/>
<path d="M11030 4226 c0 -2 8 -10 18 -17 15 -13 16 -12 3 4 -13 16 -21 21 -21
13z"/>
<path d="M58 4203 c7 -3 16 -2 19 1 4 3 -2 6 -13 5 -11 0 -14 -3 -6 -6z"/>
<path d="M468 4203 c6 -2 18 -2 25 0 6 3 1 5 -13 5 -14 0 -19 -2 -12 -5z"/>
<path d="M4383 4203 c9 -2 23 -2 30 0 6 3 -1 5 -18 5 -16 0 -22 -2 -12 -5z"/>
<path d="M4818 4203 c6 -2 18 -2 25 0 6 3 1 5 -13 5 -14 0 -19 -2 -12 -5z"/>
<path d="M5058 4203 c7 -3 16 -2 19 1 4 3 -2 6 -13 5 -11 0 -14 -3 -6 -6z"/>
<path d="M4613 4193 c9 -2 23 -2 30 0 6 3 -1 5 -18 5 -16 0 -22 -2 -12 -5z"/>
<path d="M950 4186 c0 -2 8 -10 18 -17 15 -13 16 -12 3 4 -13 16 -21 21 -21
13z"/>
<path d="M10553 4177 c4 -10 7 -24 7 -30 0 -8 3 -8 11 0 9 9 7 16 -7 30 -17
17 -18 17 -11 0z"/>
<path d="M58 4163 c6 -2 18 -2 25 0 6 3 1 5 -13 5 -14 0 -19 -2 -12 -5z"/>
<path d="M1495 4159 c-4 -6 -5 -12 -2 -15 2 -3 7 2 10 11 7 17 1 20 -8 4z"/>
<path d="M1536 4157 c3 -10 9 -15 12 -12 3 3 0 11 -7 18 -10 9 -11 8 -5 -6z"/>
<path d="M5170 4166 c0 -2 8 -10 18 -17 15 -13 16 -12 3 4 -13 16 -21 21 -21
13z"/>
<path d="M9977 4163 c-4 -3 -7 -11 -7 -17 0 -6 5 -5 12 2 6 6 9 14 7 17 -3 3
-9 2 -12 -2z"/>
<path d="M158 4153 c7 -3 16 -2 19 1 4 3 -2 6 -13 5 -11 0 -14 -3 -6 -6z"/>
<path d="M468 4153 c6 -2 18 -2 25 0 6 3 1 5 -13 5 -14 0 -19 -2 -12 -5z"/>
<path d="M828 4153 c6 -2 18 -2 25 0 6 3 1 5 -13 5 -14 0 -19 -2 -12 -5z"/>
<path d="M10090 4149 c0 -5 9 -9 20 -9 11 0 20 2 20 4 0 2 -9 6 -20 9 -11 3
-20 1 -20 -4z"/>
<path d="M10730 4149 c0 -5 9 -9 20 -9 11 0 20 2 20 4 0 2 -9 6 -20 9 -11 3
-20 1 -20 -4z"/>
<path d="M10178 4143 c6 -2 18 -2 25 0 6 3 1 5 -13 5 -14 0 -19 -2 -12 -5z"/>
<path d="M1006 4115 c-9 -26 -7 -32 5 -12 6 10 9 21 6 23 -2 3 -7 -2 -11 -11z"/>
<path d="M5212 4099 c8 -23 13 -27 19 -17 5 7 9 18 9 23 0 6 -5 3 -10 -5 -8
-13 -10 -13 -10 2 0 9 -4 19 -10 23 -5 3 -5 -8 2 -26z"/>
<path d="M6480 4126 c0 -2 8 -10 18 -17 15 -13 16 -12 3 4 -13 16 -21 21 -21
13z"/>
<path d="M58 4113 c7 -3 16 -2 19 1 4 3 -2 6 -13 5 -11 0 -14 -3 -6 -6z"/>
<path d="M11180 4112 c0 -12 19 -26 26 -19 2 2 -2 10 -11 17 -9 8 -15 8 -15 2z"/>
<path d="M10166 4086 c-3 -13 -9 -31 -12 -39 -4 -12 0 -14 16 -10 13 4 26 0
31 -8 14 -23 11 7 -5 46 -18 41 -22 43 -30 11z m24 -21 c0 -8 -4 -15 -10 -15
-5 0 -10 7 -10 15 0 8 5 15 10 15 6 0 10 -7 10 -15z"/>
<path d="M10246 4102 c-3 -6 -1 -14 5 -17 14 -9 20 -2 10 14 -6 8 -11 9 -15 3z"/>
<path d="M10300 4079 c0 -28 -2 -30 -17 -18 -15 13 -15 12 -5 -8 22 -40 32
-36 32 11 0 25 -2 46 -5 46 -3 0 -5 -14 -5 -31z"/>
<path d="M10340 4065 c0 -43 1 -45 28 -44 23 2 24 2 5 6 -13 2 -23 11 -23 18
0 7 10 16 23 18 l22 4 -22 2 c-13 0 -23 7 -23 15 0 8 10 17 23 19 19 4 18 4
-5 6 -27 1 -28 -1 -28 -44z"/>
<path d="M10420 4105 c0 -6 6 -17 12 -23 10 -10 10 -17 0 -32 -17 -27 -15 -38
2 -14 15 19 15 19 31 -1 15 -19 15 -19 4 6 -8 20 -8 33 1 50 11 23 10 23 -4 5
-16 -20 -16 -20 -31 0 -8 10 -15 14 -15 9z"/>
<path d="M10517 4103 c-4 -3 -7 -11 -7 -17 0 -6 4 -5 9 3 14 21 41 5 41 -24 0
-29 -27 -45 -41 -24 -6 10 -9 11 -9 1 0 -19 28 -26 45 -12 18 15 20 51 3 68
-13 13 -31 16 -41 5z"/>
<path d="M8381 4048 c2 -52 2 -52 8 -13 l6 40 23 -37 c13 -21 26 -38 28 -38 2
0 3 24 3 53 -2 51 -2 51 -8 12 l-6 -40 -23 38 c-13 20 -26 37 -28 37 -2 0 -3
-24 -3 -52z"/>
<path d="M8500 4096 c0 -2 9 -6 20 -9 11 -3 18 -1 14 4 -5 9 -34 13 -34 5z"/>
<path d="M7407 4073 c-3 -5 5 -8 18 -8 13 0 21 3 18 8 -2 4 -10 7 -18 7 -8 0
-16 -3 -18 -7z"/>
<path d="M7523 4040 c0 -25 2 -35 4 -22 2 12 2 32 0 45 -2 12 -4 2 -4 -23z"/>
<path d="M7557 4073 c-3 -5 5 -8 18 -8 13 0 21 3 18 8 -2 4 -10 7 -18 7 -8 0
-16 -3 -18 -7z"/>
<path d="M7663 4040 c0 -25 2 -35 4 -22 2 12 2 32 0 45 -2 12 -4 2 -4 -23z"/>
<path d="M7708 4073 c13 -3 19 -9 16 -15 -4 -7 -2 -8 4 -4 21 13 13 26 -15 25
-24 -2 -25 -2 -5 -6z"/>
<path d="M7845 4069 c-4 -6 -4 -13 -1 -16 3 -4 6 -1 6 6 0 8 8 11 20 8 11 -3
18 -1 14 4 -7 12 -31 11 -39 -2z"/>
<path d="M7913 4040 c0 -25 2 -35 4 -22 2 12 2 32 0 45 -2 12 -4 2 -4 -23z"/>
<path d="M7957 4073 c-3 -5 5 -8 18 -8 13 0 21 3 18 8 -2 4 -10 7 -18 7 -8 0
-16 -3 -18 -7z"/>
<path d="M8057 4073 c6 -4 13 -24 16 -43 4 -34 4 -33 3 4 -1 26 -6 41 -16 43
-10 3 -11 2 -3 -4z"/>
<path d="M8115 4070 c-3 -6 1 -7 9 -4 18 7 21 14 7 14 -6 0 -13 -4 -16 -10z"/>
<path d="M8185 4070 c-3 -6 1 -7 9 -4 18 7 21 14 7 14 -6 0 -13 -4 -16 -10z"/>
<path d="M11220 4075 c0 -2 10 -10 23 -16 20 -11 21 -11 8 4 -13 16 -31 23
-31 12z"/>
<path d="M7472 4040 c0 -14 2 -19 5 -12 2 6 2 18 0 25 -3 6 -5 1 -5 -13z"/>
<path d="M7795 4050 c-17 -7 -17 -9 -2 -9 9 -1 17 -5 17 -11 0 -5 -8 -13 -17
-19 -16 -9 -15 -10 5 -8 17 1 22 7 22 29 0 15 -1 28 -2 27 -2 0 -12 -4 -23 -9z"/>
<path d="M8128 4053 c-16 -2 -28 -8 -28 -12 0 -4 14 -6 30 -3 17 2 30 8 30 13
0 5 -1 8 -2 8 -2 -1 -15 -4 -30 -6z"/>
<path d="M7413 4043 c9 -2 23 -2 30 0 6 3 -1 5 -18 5 -16 0 -22 -2 -12 -5z"/>
<path d="M7556 4041 c-3 -4 6 -6 19 -3 14 2 25 6 25 8 0 8 -39 4 -44 -5z"/>
<path d="M8215 4028 c4 -11 0 -18 -12 -21 -15 -4 -16 -5 -1 -6 22 -1 33 18 19
32 -9 9 -11 8 -6 -5z"/>
<path d="M7840 4022 c0 -18 29 -27 43 -13 9 9 8 11 -7 5 -11 -4 -21 -2 -27 7
-6 10 -9 11 -9 1z"/>
<path d="M7408 4008 c5 -5 16 -8 23 -6 8 3 3 7 -10 11 -17 4 -21 3 -13 -5z"/>
<path d="M7557 4009 c7 -7 15 -10 18 -7 3 3 -2 9 -12 12 -14 6 -15 5 -6 -5z"/>
<path d="M7957 4008 c2 -5 10 -8 18 -8 8 0 16 3 18 8 3 4 -5 7 -18 7 -13 0
-21 -3 -18 -7z"/>
<path d="M8118 4008 c5 -5 16 -8 23 -6 8 3 3 7 -10 11 -17 4 -21 3 -13 -5z"/>
<path d="M8298 4008 c5 -5 16 -8 23 -6 8 3 3 7 -10 11 -17 4 -21 3 -13 -5z"/>
<path d="M7343 4003 c9 -2 23 -2 30 0 6 3 -1 5 -18 5 -16 0 -22 -2 -12 -5z"/>
<path d="M7703 4003 c9 -2 23 -2 30 0 6 3 -1 5 -18 5 -16 0 -22 -2 -12 -5z"/>
<path d="M7500 3980 c-9 -6 -10 -10 -3 -10 6 0 15 5 18 10 8 12 4 12 -15 0z"/>
<path d="M9150 3940 c0 -5 5 -10 11 -10 5 0 7 5 4 10 -3 6 -8 10 -11 10 -2 0
-4 -4 -4 -10z"/>
<path d="M10572 3865 c0 -16 2 -22 5 -12 2 9 2 23 0 30 -3 6 -5 -1 -5 -18z"/>
<path d="M8261 3833 c1 -27 4 -38 6 -25 2 12 8 22 12 22 5 0 16 -10 25 -22 14
-20 15 -20 7 -2 -6 11 -6 26 -1 34 11 18 -6 40 -31 40 -16 0 -19 -7 -18 -47z
m42 22 c1 -5 -6 -11 -15 -13 -11 -2 -18 3 -18 13 0 17 30 18 33 0z"/>
<path d="M8362 3868 c-30 -30 1 -94 33 -68 25 20 13 80 -15 80 -3 0 -11 -5
-18 -12z m33 -34 c0 -19 -5 -29 -15 -29 -16 0 -25 28 -16 51 10 25 31 10 31
-22z"/>
<path d="M8457 3873 c-3 -5 5 -8 18 -8 13 0 21 3 18 8 -2 4 -10 7 -18 7 -8 0
-16 -3 -18 -7z"/>
<path d="M8540 3871 c0 -4 11 -6 25 -3 14 2 25 6 25 8 0 2 -11 4 -25 4 -14 0
-25 -4 -25 -9z"/>
<path d="M8752 3868 c-7 -7 -12 -16 -12 -22 0 -5 6 -2 13 9 17 22 37 12 37
-20 0 -32 -20 -42 -37 -20 -7 11 -13 14 -13 8 0 -6 7 -16 15 -23 32 -26 63 38
33 68 -7 7 -15 12 -18 12 -3 0 -11 -5 -18 -12z"/>
<path d="M8441 3834 c0 -11 3 -14 6 -6 3 7 2 16 -1 19 -3 4 -6 -2 -5 -13z"/>
<path d="M8489 3832 c19 -14 3 -35 -22 -28 -15 4 -17 2 -8 -7 8 -8 16 -9 29
-1 21 14 22 36 2 41 -12 4 -13 3 -1 -5z"/>
<path d="M8540 3831 c0 -5 9 -7 20 -4 11 3 20 7 20 9 0 2 -9 4 -20 4 -11 0
-20 -4 -20 -9z"/>
<path d="M8540 3799 c0 -5 11 -9 25 -9 14 0 25 2 25 4 0 2 -11 6 -25 8 -14 3
-25 1 -25 -3z"/>
<path d="M8620 3799 c0 -5 9 -9 20 -9 11 0 20 2 20 4 0 2 -9 6 -20 9 -11 3
-20 1 -20 -4z"/>
<path d="M9121 3724 c0 -11 3 -14 6 -6 3 7 2 16 -1 19 -3 4 -6 -2 -5 -13z"/>
<path d="M8211 3683 c2 -47 2 -47 9 -13 4 19 8 29 9 21 0 -8 3 -12 6 -10 7 8
-6 49 -16 49 -5 0 -8 -21 -8 -47z"/>
<path d="M8269 3703 c-6 -15 -16 -31 -22 -35 -9 -5 -9 -10 -1 -18 9 -9 13 -4
19 17 7 26 8 26 15 8 7 -16 9 -12 9 18 1 44 -6 47 -20 10z"/>
<path d="M8350 3721 c0 -5 5 -13 10 -16 6 -3 10 -2 10 4 0 5 -4 13 -10 16 -5
3 -10 2 -10 -4z"/>
<path d="M8421 3683 c1 -27 4 -38 6 -25 2 12 8 22 12 22 5 0 16 -10 25 -22 15
-21 16 -21 7 -2 -6 12 -7 24 -4 28 3 3 -3 6 -15 6 -13 0 -22 6 -22 15 0 18 21
20 40 3 12 -11 12 -10 1 5 -7 9 -22 17 -32 17 -16 0 -19 -7 -18 -47z"/>
<path d="M8500 3726 c0 -9 39 -13 51 -5 10 6 4 9 -18 9 -18 0 -33 -2 -33 -4z"/>
<path d="M8593 3685 c0 -27 2 -38 4 -22 2 15 2 37 0 50 -2 12 -4 0 -4 -28z"/>
<path d="M8640 3705 c0 -21 3 -26 9 -16 7 11 10 9 15 -7 4 -11 13 -26 21 -32
13 -11 15 -5 14 36 -2 45 -2 46 -8 14 l-6 -35 -22 35 -23 35 0 -30z"/>
<path d="M8748 3723 c6 -2 18 -2 25 0 6 3 1 5 -13 5 -14 0 -19 -2 -12 -5z"/>
<path d="M8828 3723 c27 -5 27 -4 1 -47 l-21 -36 34 1 c23 1 26 3 11 6 -28 5
-28 7 -2 49 l21 34 -34 -1 c-23 -1 -26 -3 -10 -6z"/>
<path d="M11677 3719 c7 -7 15 -10 18 -7 3 3 -2 9 -12 12 -14 6 -15 5 -6 -5z"/>
<path d="M6992 3688 c-17 -17 -15 -53 3 -68 17 -14 45 -7 45 12 0 10 -3 9 -9
-1 -13 -21 -41 -5 -41 23 0 14 8 30 18 35 9 6 12 11 7 11 -6 0 -16 -5 -23 -12z"/>
<path d="M7070 3655 c0 -37 3 -45 18 -45 24 0 42 19 42 45 0 26 -18 45 -42 45
-15 0 -18 -8 -18 -45z m45 0 c0 -20 -6 -31 -17 -33 -15 -3 -18 4 -18 33 0 29
3 36 18 33 11 -2 17 -13 17 -33z"/>
<path d="M7171 3659 c-7 -23 -10 -44 -7 -47 3 -3 6 0 6 6 0 7 9 12 20 12 11 0
20 -5 20 -12 0 -6 3 -9 6 -5 7 7 -14 75 -25 82 -5 2 -14 -14 -20 -36z m29 -4
c0 -8 -4 -15 -10 -15 -5 0 -10 7 -10 15 0 8 5 15 10 15 6 0 10 -7 10 -15z"/>
<path d="M7278 3690 c12 -5 22 -15 22 -21 0 -7 3 -9 6 -6 10 10 -16 37 -35 36
-11 0 -9 -3 7 -9z"/>
<path d="M8531 3684 c0 -11 3 -14 6 -6 3 7 2 16 -1 19 -3 4 -6 -2 -5 -13z"/>
<path d="M10558 3693 c6 -2 18 -2 25 0 6 3 1 5 -13 5 -14 0 -19 -2 -12 -5z"/>
<path d="M8371 3683 c-1 -7 -10 -13 -20 -13 -10 0 -22 -8 -26 -17 -5 -15 -4
-16 6 -5 16 15 49 16 49 0 0 -6 2 -9 5 -6 3 3 1 16 -4 29 -5 13 -10 18 -10 12z"/>
<path d="M8748 3683 c6 -2 18 -2 25 0 6 3 1 5 -13 5 -14 0 -19 -2 -12 -5z"/>
<path d="M8738 3648 c6 -6 18 -8 28 -6 14 3 12 5 -9 10 -19 3 -25 2 -19 -4z"/>
<path d="M7300 3641 c0 -6 -10 -16 -22 -21 -16 -6 -18 -9 -7 -9 19 -1 45 26
35 36 -3 3 -6 1 -6 -6z"/>
<path d="M10581 3584 c0 -11 3 -14 6 -6 3 7 2 16 -1 19 -3 4 -6 -2 -5 -13z"/>
<path d="M6673 3540 c0 -25 2 -35 4 -22 2 12 2 32 0 45 -2 12 -4 2 -4 -23z"/>
<path d="M6722 3548 c-1 -23 -8 -41 -19 -47 -10 -6 -13 -11 -7 -11 21 0 35 28
31 62 l-4 33 -1 -37z"/>
<path d="M6762 3535 c1 -45 1 -47 7 -15 l6 35 22 -35 c13 -19 23 -29 23 -23 0
7 -7 21 -15 30 -8 10 -21 27 -29 38 -14 19 -15 16 -14 -30z"/>
<path d="M6863 3535 c0 -27 2 -38 4 -22 2 15 2 37 0 50 -2 12 -4 0 -4 -28z"/>
<path d="M7008 3573 c6 -2 18 -2 25 0 6 3 1 5 -13 5 -14 0 -19 -2 -12 -5z"/>
<path d="M7098 3573 c12 -2 22 -11 22 -19 0 -8 -10 -15 -22 -15 -15 -1 -17 -3
-7 -6 9 -2 21 -13 26 -25 7 -17 9 -13 9 23 -1 40 -3 44 -26 46 -22 1 -22 1 -2
-4z"/>
<path d="M7163 3563 c-4 -9 -2 -18 4 -20 5 -2 19 -10 29 -18 18 -13 18 -14 0
-21 -11 -4 -21 -2 -27 7 -6 10 -9 11 -9 1 0 -20 30 -26 47 -9 14 13 13 17 -11
32 -31 20 -34 40 -6 32 11 -3 18 -1 14 4 -9 15 -34 10 -41 -8z"/>
<path d="M7253 3535 c0 -27 2 -38 4 -22 2 15 2 37 0 50 -2 12 -4 0 -4 -28z"/>
<path d="M7297 3572 c6 -4 13 -25 16 -47 l4 -40 1 42 c1 23 8 44 15 46 6 3 -1
6 -18 6 -17 0 -25 -3 -18 -7z"/>
<path d="M7386 3564 c-3 -9 -4 -19 -1 -22 3 -3 5 1 5 9 0 11 2 11 10 -1 5 -8
10 -10 10 -5 0 6 -4 16 -9 23 -6 11 -10 10 -15 -4z"/>
<path d="M7461 3533 c1 -27 4 -38 6 -25 2 12 8 22 12 22 5 0 16 -10 25 -22
l17 -23 -11 23 c-6 12 -8 26 -5 31 3 5 -4 7 -15 4 -14 -4 -20 0 -20 12 0 12 6
16 20 12 11 -3 18 -1 14 4 -3 5 -14 9 -25 9 -16 0 -19 -7 -18 -47z"/>
<path d="M7553 3535 c0 -27 2 -38 4 -22 2 15 2 37 0 50 -2 12 -4 0 -4 -28z"/>
<path d="M7611 3558 c-11 -29 -23 -77 -15 -60 7 15 36 16 52 0 8 -8 7 5 -4 35
-9 26 -18 47 -20 47 -3 0 -8 -10 -13 -22z m17 -37 c-15 -5 -19 4 -11 24 6 18
7 18 13 -1 4 -10 3 -21 -2 -23z"/>
<path d="M10555 3539 c-4 -6 -5 -12 -2 -15 2 -3 7 2 10 11 7 17 1 20 -8 4z"/>
<path d="M10596 3537 c3 -10 9 -15 12 -12 3 3 0 11 -7 18 -10 9 -11 8 -5 -6z"/>
<path d="M7008 3533 c6 -2 18 -2 25 0 6 3 1 5 -13 5 -14 0 -19 -2 -12 -5z"/>
<path d="M7365 3512 c-3 -8 -3 -17 0 -20 3 -3 5 0 5 6 0 7 11 12 25 12 14 0
25 -5 25 -12 0 -6 3 -9 6 -5 3 3 2 11 -3 19 -11 18 -51 18 -58 0z"/>
<path d="M6920 3511 c0 -5 5 -13 10 -16 6 -3 10 -2 10 4 0 5 -4 13 -10 16 -5
3 -10 2 -10 -4z"/>
<path d="M7008 3493 c6 -2 18 -2 25 0 6 3 1 5 -13 5 -14 0 -19 -2 -12 -5z"/>
<path d="M3814 3437 c-2 -7 -4 -54 -2 -103 l3 -89 100 0 100 0 0 100 0 100
-98 3 c-75 2 -99 0 -103 -11z m191 -92 l0 -90 -90 0 -90 0 -3 79 c-2 44 -1 85
2 93 4 11 26 13 93 11 l88 -3 0 -90z"/>
<path d="M10555 3409 c-4 -6 -5 -12 -2 -15 2 -3 7 2 10 11 7 17 1 20 -8 4z"/>
<path d="M10596 3407 c3 -10 9 -15 12 -12 3 3 0 11 -7 18 -10 9 -11 8 -5 -6z"/>
<path d="M4056 3401 c-4 -5 3 -7 14 -4 23 6 26 13 6 13 -8 0 -17 -4 -20 -9z"/>
<path d="M4172 3374 c-2 -48 19 -74 46 -57 11 7 17 25 18 54 l2 44 -7 -45 c-5
-36 -10 -45 -26 -45 -16 0 -21 9 -26 45 l-6 45 -1 -41z"/>
<path d="M4278 3403 c7 -3 16 -2 19 1 4 3 -2 6 -13 5 -11 0 -14 -3 -6 -6z"/>
<path d="M4380 3401 c0 -6 4 -13 10 -16 6 -3 7 1 4 9 -7 18 -14 21 -14 7z"/>
<path d="M4465 3403 c11 -3 27 -10 35 -17 13 -10 13 -9 1 7 -7 9 -23 16 -35
16 -20 -1 -20 -2 -1 -6z"/>
<path d="M4571 3358 c1 -29 4 -43 6 -31 2 13 13 24 26 26 l22 4 -22 2 c-16 1
-23 7 -23 20 0 12 8 21 23 24 19 4 18 4 -5 6 -27 1 -28 0 -27 -51z"/>
<path d="M4661 3358 c1 -29 4 -42 6 -30 3 17 10 23 23 19 10 -3 21 1 23 8 4 8
-3 10 -19 7 -20 -3 -24 0 -24 18 0 18 4 21 25 18 13 -3 22 -1 19 3 -3 5 -16 9
-30 9 -23 0 -24 -3 -23 -52z"/>
<path d="M4840 3360 c0 -46 2 -50 23 -49 16 1 18 2 5 6 -13 3 -18 15 -18 43 0
28 5 40 18 43 13 4 11 5 -5 6 -21 1 -23 -3 -23 -49z"/>
<path d="M4939 3393 c-13 -16 -12 -17 3 -4 26 20 48 7 48 -29 0 -35 -22 -49
-48 -29 -16 12 -15 11 1 -6 22 -25 51 -10 55 29 6 48 -32 73 -59 39z"/>
<path d="M5063 3360 c0 -30 2 -43 4 -28 3 22 10 28 36 31 l32 4 -32 1 c-24 2
-33 7 -36 25 -2 12 -4 -3 -4 -33z"/>
<path d="M5171 3396 c-17 -20 -10 -67 11 -80 14 -8 21 -6 35 9 16 17 17 18 1
6 -26 -20 -48 -6 -48 29 0 36 22 49 48 29 15 -13 16 -12 3 4 -16 21 -35 22
-50 3z"/>
<path d="M5268 3403 c12 -2 30 -2 40 0 9 3 -1 5 -23 4 -22 0 -30 -2 -17 -4z"/>
<path d="M5340 3360 l0 -50 33 1 c30 2 30 2 5 6 -35 5 -39 40 -5 46 l22 4 -22
2 c-13 0 -23 7 -23 15 0 8 10 17 23 19 19 4 18 4 -5 6 -27 1 -28 -1 -28 -49z"/>
<path d="M5422 3363 c-2 -52 -1 -53 26 -52 22 1 23 2 5 6 -18 4 -23 12 -26 51
l-3 47 -2 -52z"/>
<path d="M4315 3360 c0 -21 3 -36 8 -33 4 2 7 17 7 33 0 16 -3 31 -7 33 -5 3
-8 -12 -8 -33z"/>
<path d="M4042 3360 c0 -14 2 -19 5 -12 2 6 2 18 0 25 -3 6 -5 1 -5 -13z"/>
<path d="M4360 3349 c0 -5 11 -9 25 -9 14 0 25 2 25 4 0 2 -11 6 -25 8 -14 3
-25 1 -25 -3z"/>
<path d="M4763 3343 c9 -2 25 -2 35 0 9 3 1 5 -18 5 -19 0 -27 -2 -17 -5z"/>
<path d="M4495 3331 c-6 -5 -19 -11 -30 -14 -19 -4 -19 -5 1 -6 12 0 27 6 34
14 14 16 10 20 -5 6z"/>
<path d="M4058 3318 c5 -5 16 -8 23 -6 8 3 3 7 -10 11 -17 4 -21 3 -13 -5z"/>
<path d="M4278 3313 c7 -3 16 -2 19 1 4 3 -2 6 -13 5 -11 0 -14 -3 -6 -6z"/>
<path d="M11605 3280 c-3 -6 1 -7 9 -4 18 7 21 14 7 14 -6 0 -13 -4 -16 -10z"/>
<path d="M11845 3280 c-3 -6 1 -7 9 -4 18 7 21 14 7 14 -6 0 -13 -4 -16 -10z"/>
<path d="M11352 3250 c0 -14 2 -19 5 -12 2 6 2 18 0 25 -3 6 -5 1 -5 -13z"/>
<path d="M11468 3263 c7 -3 16 -2 19 1 4 3 -2 6 -13 5 -11 0 -14 -3 -6 -6z"/>
<path d="M11558 3263 c7 -3 16 -2 19 1 4 3 -2 6 -13 5 -11 0 -14 -3 -6 -6z"/>
<path d="M11728 3263 c6 -2 18 -2 25 0 6 3 1 5 -13 5 -14 0 -19 -2 -12 -5z"/>
<path d="M11607 3239 c7 -7 15 -10 18 -7 3 3 -2 9 -12 12 -14 6 -15 5 -6 -5z"/>
<path d="M11680 3240 c-13 -8 -12 -10 3 -10 9 0 17 5 17 10 0 12 -1 12 -20 0z"/>
<path d="M11727 3239 c7 -7 15 -10 18 -7 3 3 -2 9 -12 12 -14 6 -15 5 -6 -5z"/>
<path d="M11847 3239 c7 -7 15 -10 18 -7 3 3 -2 9 -12 12 -14 6 -15 5 -6 -5z"/>
<path d="M10048 3223 c6 -2 18 -2 25 0 6 3 1 5 -13 5 -14 0 -19 -2 -12 -5z"/>
<path d="M5740 3169 c-37 -15 -58 -38 -71 -76 -16 -51 -4 -94 46 -159 25 -32
50 -72 57 -91 15 -42 24 -42 38 1 6 18 31 59 55 91 52 66 63 110 43 163 -25
66 -100 98 -168 71z"/>
<path d="M9648 3163 c6 -2 18 -2 25 0 6 3 1 5 -13 5 -14 0 -19 -2 -12 -5z"/>
<path d="M6653 3075 c0 -33 2 -45 4 -27 2 18 2 45 0 60 -2 15 -4 0 -4 -33z"/>
<path d="M7103 3075 c0 -33 2 -45 4 -27 2 18 2 45 0 60 -2 15 -4 0 -4 -33z"/>
<path d="M5952 3084 c-2 -48 19 -74 46 -57 11 7 17 25 18 54 l2 44 -7 -45 c-5
-36 -10 -45 -26 -45 -16 0 -21 9 -26 45 l-6 45 -1 -41z"/>
<path d="M6722 3113 c12 -3 18 -18 21 -51 l3 -47 2 47 c2 35 6 48 20 51 9 3
-1 5 -23 5 -22 0 -32 -2 -23 -5z"/>
<path d="M6041 3055 l2 -40 6 35 c4 25 11 35 24 34 9 -1 17 2 17 7 0 5 -11 8
-25 7 -22 -2 -25 -6 -24 -43z"/>
<path d="M6123 3060 c0 -25 2 -35 4 -22 2 12 2 32 0 45 -2 12 -4 2 -4 -23z"/>
<path d="M6240 3096 c0 -2 7 -7 16 -10 8 -3 12 -2 9 4 -6 10 -25 14 -25 6z"/>
<path d="M6344 3089 c-3 -6 -1 -16 5 -22 9 -9 10 -7 5 7 -6 16 -4 18 14 14 12
-4 20 -2 16 3 -7 12 -31 11 -40 -2z"/>
<path d="M6455 3089 c-4 -6 -4 -13 -1 -16 3 -4 6 -1 6 6 0 8 8 11 20 8 11 -3
18 -1 14 4 -7 12 -31 11 -39 -2z"/>
<path d="M6536 3091 c-3 -5 3 -7 14 -4 11 3 20 0 20 -6 0 -6 -6 -11 -14 -11
-8 0 -17 -4 -20 -9 -4 -5 3 -7 13 -4 14 4 21 -1 24 -19 3 -12 4 -5 4 17 -2 28
-7 41 -19 43 -9 2 -19 -1 -22 -7z"/>
<path d="M6615 3090 c-3 -6 1 -7 9 -4 18 7 21 14 7 14 -6 0 -13 -4 -16 -10z"/>
<path d="M6806 3091 c-4 -5 3 -7 14 -4 23 6 26 13 6 13 -8 0 -17 -4 -20 -9z"/>
<path d="M6875 3089 c-4 -6 -4 -13 -1 -16 3 -4 6 -1 6 6 0 8 8 11 20 8 11 -3
18 -1 14 4 -7 12 -31 11 -39 -2z"/>
<path d="M6941 3055 l2 -40 6 35 c4 25 11 35 23 34 10 -1 15 2 13 6 -3 5 -14
8 -25 7 -17 -1 -20 -8 -19 -42z"/>
<path d="M7053 3090 c9 -6 17 -20 17 -30 0 -10 -8 -24 -17 -30 -11 -7 -12 -10
-4 -7 24 6 37 35 25 54 -6 9 -17 18 -25 20 -8 3 -7 0 4 -7z"/>
<path d="M7263 3060 c0 -25 2 -35 4 -22 2 12 2 32 0 45 -2 12 -4 2 -4 -23z"/>
<path d="M7293 3060 c0 -25 2 -35 4 -22 2 12 2 32 0 45 -2 12 -4 2 -4 -23z"/>
<path d="M7332 3088 c-22 -22 -7 -69 23 -68 5 0 2 5 -7 11 -10 5 -18 19 -18
29 0 10 8 24 18 29 9 6 12 11 7 11 -6 0 -16 -5 -23 -12z"/>
<path d="M7407 3093 c-3 -5 5 -8 18 -8 13 0 21 3 18 8 -2 4 -10 7 -18 7 -8 0
-16 -3 -18 -7z"/>
<path d="M6220 3056 c0 -13 3 -16 8 -10 4 7 16 14 27 16 17 3 15 5 -7 10 -24
4 -28 2 -28 -16z"/>
<path d="M6818 3073 c-16 -2 -28 -10 -28 -17 0 -17 21 -36 40 -35 9 0 6 4 -7
9 -31 12 -29 30 2 30 14 0 25 5 25 10 0 6 -1 9 -2 9 -2 -1 -15 -4 -30 -6z"/>
<path d="M7132 3060 c0 -14 2 -19 5 -12 2 6 2 18 0 25 -3 6 -5 1 -5 -13z"/>
<path d="M7182 3060 c0 -14 2 -19 5 -12 2 6 2 18 0 25 -3 6 -5 1 -5 -13z"/>
<path d="M7212 3060 c0 -14 2 -19 5 -12 2 6 2 18 0 25 -3 6 -5 1 -5 -13z"/>
<path d="M7406 3061 c-3 -4 6 -6 19 -3 14 2 25 6 25 8 0 8 -39 4 -44 -5z"/>
<path d="M4490 3036 c-6 -8 -10 -25 -7 -38 4 -20 4 -20 6 5 1 19 8 31 24 37
15 6 17 9 6 9 -9 1 -22 -6 -29 -13z"/>
<path d="M6175 3039 c-4 -6 -5 -12 -2 -15 2 -3 7 2 10 11 7 17 1 20 -8 4z"/>
<path d="M6450 3042 c0 -18 29 -27 43 -13 9 9 8 11 -7 5 -11 -4 -21 -2 -27 7
-6 10 -9 11 -9 1z"/>
<path d="M6870 3042 c0 -18 29 -27 43 -13 9 9 8 11 -7 5 -11 -4 -21 -2 -27 7
-6 10 -9 11 -9 1z"/>
<path d="M6347 3028 c2 -5 10 -8 18 -8 8 0 16 3 18 8 3 4 -5 7 -18 7 -13 0
-21 -3 -18 -7z"/>
<path d="M6537 3029 c7 -7 15 -10 18 -7 3 3 -2 9 -12 12 -14 6 -15 5 -6 -5z"/>
<path d="M6617 3029 c7 -7 15 -10 18 -7 3 3 -2 9 -12 12 -14 6 -15 5 -6 -5z"/>
<path d="M7407 3029 c7 -7 15 -10 18 -7 3 3 -2 9 -12 12 -14 6 -15 5 -6 -5z"/>
<path d="M4067 3023 c-3 -5 5 -8 18 -8 13 0 21 3 18 8 -2 4 -10 7 -18 7 -8 0
-16 -3 -18 -7z"/>
<path d="M4145 3020 c-3 -6 1 -7 9 -4 18 7 21 14 7 14 -6 0 -13 -4 -16 -10z"/>
<path d="M4225 3020 c-3 -6 1 -7 9 -4 18 7 21 14 7 14 -6 0 -13 -4 -16 -10z"/>
<path d="M4293 2990 c0 -25 2 -35 4 -22 2 12 2 32 0 45 -2 12 -4 2 -4 -23z"/>
<path d="M4390 3026 c0 -2 7 -7 16 -10 8 -3 12 -2 9 4 -6 10 -25 14 -25 6z"/>
<path d="M4665 3019 c-4 -6 -4 -13 -1 -16 3 -4 6 -1 6 6 0 8 8 11 20 8 11 -3
18 -1 14 4 -7 12 -31 11 -39 -2z"/>
<path d="M4747 3023 c-3 -5 5 -8 18 -8 13 0 21 3 18 8 -2 4 -10 7 -18 7 -8 0
-16 -3 -18 -7z"/>
<path d="M3873 3003 c9 -2 25 -2 35 0 9 3 1 5 -18 5 -19 0 -27 -2 -17 -5z"/>
<path d="M3950 2986 c0 -13 3 -16 8 -10 4 7 16 14 27 16 17 3 15 5 -7 10 -24
4 -28 2 -28 -16z"/>
<path d="M4238 3003 c-16 -2 -28 -8 -28 -12 0 -4 14 -6 30 -3 17 2 30 8 30 13
0 5 -1 8 -2 8 -2 -1 -15 -4 -30 -6z"/>
<path d="M7240 3000 c-9 -6 -10 -10 -3 -10 6 0 15 5 18 10 8 12 4 12 -15 0z"/>
<path d="M4066 2991 c-3 -4 6 -6 19 -3 14 2 25 6 25 8 0 8 -39 4 -44 -5z"/>
<path d="M4398 2993 c7 -3 16 -2 19 1 4 3 -2 6 -13 5 -11 0 -14 -3 -6 -6z"/>
<path d="M4528 2993 c7 -3 16 -2 19 1 4 3 -2 6 -13 5 -11 0 -14 -3 -6 -6z"/>
<path d="M4373 2976 c1 -11 9 -21 17 -23 10 -3 11 -2 4 4 -6 4 -14 15 -17 23
-5 11 -6 9 -4 -4z"/>
<path d="M4660 2971 c0 -10 19 -25 25 -20 1 2 -3 10 -11 17 -8 7 -14 8 -14 3z"/>
<path d="M6473 2925 c0 -33 2 -45 4 -27 2 18 2 45 0 60 -2 15 -4 0 -4 -33z"/>
<path d="M4067 2959 c7 -7 15 -10 18 -7 3 3 -2 9 -12 12 -14 6 -15 5 -6 -5z"/>
<path d="M4147 2959 c7 -7 15 -10 18 -7 3 3 -2 9 -12 12 -14 6 -15 5 -6 -5z"/>
<path d="M4228 2958 c5 -5 16 -8 23 -6 8 3 3 7 -10 11 -17 4 -21 3 -13 -5z"/>
<path d="M4525 2960 c-16 -7 -17 -9 -3 -9 9 -1 20 4 23 9 7 11 7 11 -20 0z"/>
<path d="M4747 2958 c2 -5 10 -8 18 -8 8 0 16 3 18 8 3 4 -5 7 -18 7 -13 0
-21 -3 -18 -7z"/>
<path d="M6683 2963 c9 -2 23 -2 30 0 6 3 -1 5 -18 5 -16 0 -22 -2 -12 -5z"/>
<path d="M5960 2950 c0 -5 5 -10 11 -10 5 0 7 5 4 10 -3 6 -8 10 -11 10 -2 0
-4 -4 -4 -10z"/>
<path d="M7865 2950 c-3 -6 1 -7 9 -4 18 7 21 14 7 14 -6 0 -13 -4 -16 -10z"/>
<path d="M6070 2946 c0 -2 7 -7 16 -10 8 -3 12 -2 9 4 -6 10 -25 14 -25 6z"/>
<path d="M6137 2943 c-3 -5 5 -8 18 -8 13 0 21 3 18 8 -2 4 -10 7 -18 7 -8 0
-16 -3 -18 -7z"/>
<path d="M6203 2910 c0 -25 2 -35 4 -22 2 12 2 32 0 45 -2 12 -4 2 -4 -23z"/>
<path d="M6247 2943 c-3 -5 5 -8 18 -8 13 0 21 3 18 8 -2 4 -10 7 -18 7 -8 0
-16 -3 -18 -7z"/>
<path d="M6347 2943 c6 -4 13 -24 16 -43 4 -34 4 -33 3 4 -1 26 -6 41 -16 43
-10 3 -11 2 -3 -4z"/>
<path d="M6397 2943 c-3 -5 5 -8 18 -8 13 0 21 3 18 8 -2 4 -10 7 -18 7 -8 0
-16 -3 -18 -7z"/>
<path d="M6747 2943 c-3 -5 5 -8 18 -8 13 0 21 3 18 8 -2 4 -10 7 -18 7 -8 0
-16 -3 -18 -7z"/>
<path d="M6822 2938 c-22 -22 -7 -68 22 -68 5 0 2 6 -8 13 -25 18 -17 52 11
51 12 0 20 3 17 8 -7 12 -28 10 -42 -4z"/>
<path d="M6933 2910 c0 -25 2 -35 4 -22 2 12 2 32 0 45 -2 12 -4 2 -4 -23z"/>
<path d="M6998 2943 c7 -3 16 -2 19 1 4 3 -2 6 -13 5 -11 0 -14 -3 -6 -6z"/>
<path d="M6683 2923 c9 -2 23 -2 30 0 6 3 -1 5 -18 5 -16 0 -22 -2 -12 -5z"/>
<path d="M7075 2920 c-17 -7 -17 -9 -2 -9 9 -1 17 -5 17 -11 0 -5 -8 -13 -17
-19 -16 -9 -15 -10 5 -8 17 1 22 7 22 29 0 15 -1 28 -2 27 -2 0 -12 -4 -23 -9z"/>
<path d="M7122 2910 c0 -14 2 -19 5 -12 2 6 2 18 0 25 -3 6 -5 1 -5 -13z"/>
<path d="M6078 2913 c7 -3 16 -2 19 1 4 3 -2 6 -13 5 -11 0 -14 -3 -6 -6z"/>
<path d="M6394 2905 c-7 -17 3 -35 19 -34 9 0 9 2 0 6 -21 8 -15 31 10 36 l22
4 -23 2 c-12 0 -25 -6 -28 -14z"/>
<path d="M6553 2913 c9 -2 25 -2 35 0 9 3 1 5 -18 5 -19 0 -27 -2 -17 -5z"/>
<path d="M6746 2911 c-3 -4 6 -6 19 -3 14 2 25 6 25 8 0 8 -39 4 -44 -5z"/>
<path d="M7778 2913 c7 -3 16 -2 19 1 4 3 -2 6 -13 5 -11 0 -14 -3 -6 -6z"/>
<path d="M7870 2910 c0 -5 7 -7 15 -4 8 4 15 8 15 10 0 2 -7 4 -15 4 -8 0 -15
-4 -15 -10z"/>
<path d="M6053 2896 c1 -11 9 -21 17 -23 10 -3 11 -2 4 4 -6 4 -14 15 -17 23
-5 11 -6 9 -4 -4z"/>
<path d="M6005 2890 c3 -5 8 -10 11 -10 2 0 4 5 4 10 0 6 -5 10 -11 10 -5 0
-7 -4 -4 -10z"/>
<path d="M6137 2878 c2 -5 10 -8 18 -8 8 0 16 3 18 8 3 4 -5 7 -18 7 -13 0
-21 -3 -18 -7z"/>
<path d="M6247 2878 c2 -5 10 -8 18 -8 8 0 16 3 18 8 3 4 -5 7 -18 7 -13 0
-21 -3 -18 -7z"/>
<path d="M6747 2879 c7 -7 15 -10 18 -7 3 3 -2 9 -12 12 -14 6 -15 5 -6 -5z"/>
<path d="M6897 2879 c7 -7 15 -10 18 -7 3 3 -2 9 -12 12 -14 6 -15 5 -6 -5z"/>
<path d="M7150 2880 c-9 -6 -10 -10 -3 -10 6 0 15 5 18 10 8 12 4 12 -15 0z"/>
<path d="M10550 2741 c0 -11 4 -22 9 -25 5 -4 7 3 4 14 -4 14 0 20 12 20 12 0
16 -6 12 -20 -3 -11 -1 -18 4 -14 5 3 9 12 9 20 0 8 5 14 11 14 6 0 9 -9 6
-20 -3 -11 -1 -18 4 -14 5 3 9 14 9 25 0 16 -7 19 -40 19 -33 0 -40 -3 -40
-19z"/>
<path d="M10555 2679 c-4 -6 -5 -12 -2 -15 2 -3 7 2 10 11 7 17 1 20 -8 4z"/>
<path d="M10582 2670 c0 -14 2 -19 5 -12 2 6 2 18 0 25 -3 6 -5 1 -5 -13z"/>
<path d="M10941 2603 c1 -27 4 -38 6 -25 2 12 8 22 12 22 5 0 16 -10 25 -22
15 -21 16 -21 7 -2 -6 12 -7 24 -4 28 3 3 -3 6 -15 6 -13 0 -22 6 -22 15 0 18
21 20 40 3 12 -11 12 -10 1 5 -7 9 -22 17 -32 17 -16 0 -19 -7 -18 -47z"/>
<path d="M11030 2605 c0 -43 1 -45 28 -44 23 2 24 2 5 6 -27 5 -31 30 -5 36
16 4 16 5 0 6 -26 2 -22 29 5 34 19 4 18 4 -5 6 -27 1 -28 -1 -28 -44z"/>
<path d="M11114 2635 c-7 -18 3 -35 22 -35 8 0 14 -7 14 -16 0 -12 -6 -15 -21
-11 -16 4 -19 3 -11 -5 14 -14 42 -3 42 18 0 9 -9 18 -20 21 -11 3 -20 12 -20
20 0 10 7 14 20 10 11 -3 18 -1 14 4 -8 14 -34 11 -40 -6z"/>
<path d="M11193 2605 c0 -27 2 -38 4 -22 2 15 2 37 0 50 -2 12 -4 0 -4 -28z"/>
<path d="M11240 2605 c0 -38 3 -45 19 -45 11 0 22 4 25 9 4 5 -3 7 -14 4 -17
-5 -20 0 -20 32 0 32 3 37 20 32 11 -3 18 -1 14 4 -3 5 -14 9 -25 9 -16 0 -19
-7 -19 -45z"/>
<path d="M11330 2605 c0 -43 1 -45 28 -44 23 2 24 2 5 6 -27 5 -31 30 -5 36
16 4 16 5 0 6 -26 2 -22 29 5 34 19 4 18 4 -5 6 -27 1 -28 -1 -28 -44z"/>
<path d="M11412 2603 c1 -37 2 -41 5 -15 3 19 9 30 15 26 6 -4 6 2 -1 15 -17
31 -21 26 -19 -26z"/>
<path d="M11461 2622 c-1 -21 -5 -31 -12 -26 -6 4 -5 -4 2 -17 l14 -24 3 28
c2 15 1 37 -1 50 -3 15 -5 12 -6 -11z"/>
<path d="M11517 2643 c-3 -5 5 -8 18 -8 13 0 21 3 18 8 -2 4 -10 7 -18 7 -8 0
-16 -3 -18 -7z"/>
<path d="M11603 2605 c0 -27 2 -38 4 -22 2 15 2 37 0 50 -2 12 -4 0 -4 -28z"/>
<path d="M11667 2643 c-10 -10 -8 -25 2 -19 5 3 11 -3 14 -14 3 -13 0 -20 -9
-20 -8 0 -14 6 -15 13 0 6 -5 1 -10 -12 -5 -13 -7 -26 -4 -29 3 -3 5 0 5 6 0
16 33 15 48 0 8 -8 7 5 -4 35 -17 50 -17 50 -27 40z"/>
<path d="M11291 2604 c0 -11 3 -14 6 -6 3 7 2 16 -1 19 -3 4 -6 -2 -5 -13z"/>
<path d="M11501 2604 c0 -11 3 -14 6 -6 3 7 2 16 -1 19 -3 4 -6 -2 -5 -13z"/>
<path d="M11517 2568 c2 -5 10 -8 18 -8 8 0 16 3 18 8 3 4 -5 7 -18 7 -13 0
-21 -3 -18 -7z"/>
<path d="M11748 2563 c6 -2 18 -2 25 0 6 3 1 5 -13 5 -14 0 -19 -2 -12 -5z"/>
<path d="M10967 2523 c-14 -13 -6 -30 19 -41 28 -13 23 -37 -7 -29 -11 3 -17
1 -13 -4 8 -14 30 -11 43 5 10 12 7 18 -13 31 -31 20 -34 39 -6 32 11 -3 18
-1 14 4 -6 11 -28 12 -37 2z"/>
<path d="M11066 2514 c-3 -9 -4 -19 -1 -22 3 -3 5 1 5 9 0 11 2 11 10 -1 5 -8
10 -10 10 -5 0 6 -4 16 -9 23 -6 11 -10 10 -15 -4z"/>
<path d="M11142 2485 c1 -46 1 -47 7 -15 l7 35 17 -32 c10 -18 20 -33 22 -33
3 0 4 21 4 48 -2 46 -2 46 -9 12 -4 -19 -8 -30 -9 -25 -1 6 -10 21 -21 35
l-20 25 2 -50z"/>
<path d="M11287 2523 c-3 -5 5 -8 18 -8 13 0 21 3 18 8 -2 4 -10 7 -18 7 -8 0
-16 -3 -18 -7z"/>
<path d="M11386 2514 c-3 -9 -4 -19 -1 -22 3 -3 5 1 5 9 0 11 2 11 10 -1 5 -8
10 -10 10 -5 0 6 -4 16 -9 23 -6 11 -10 10 -15 -4z"/>
<path d="M11461 2483 c1 -27 4 -38 6 -25 2 12 8 22 12 22 5 0 16 -10 25 -22
l17 -23 -11 23 c-8 16 -8 27 -1 36 13 15 -5 36 -31 36 -15 0 -18 -8 -17 -47z
m42 22 c1 -5 -6 -11 -15 -13 -11 -2 -18 3 -18 13 0 17 30 18 33 0z"/>
<path d="M11632 2518 c-7 -7 -12 -16 -12 -22 0 -5 6 -2 13 9 17 22 37 12 37
-20 0 -32 -20 -42 -37 -20 -7 11 -13 14 -13 8 0 -6 7 -16 15 -23 32 -26 63 38
33 68 -7 7 -15 12 -18 12 -3 0 -11 -5 -18 -12z"/>
<path d="M11721 2516 c-9 -11 -6 -18 16 -34 31 -22 24 -44 -7 -24 -11 7 -20 8
-20 3 0 -12 37 -24 50 -16 18 11 11 32 -16 43 -26 12 -24 38 3 28 8 -3 11 -1
8 4 -9 14 -21 12 -34 -4z"/>
<path d="M1591 2504 c0 -11 3 -14 6 -6 3 7 2 16 -1 19 -3 4 -6 -2 -5 -13z"/>
<path d="M10581 2504 c0 -11 3 -14 6 -6 3 7 2 16 -1 19 -3 4 -6 -2 -5 -13z"/>
<path d="M5809 2499 c-2 -29 3 -74 9 -81 4 -4 6 13 5 38 -1 43 -12 74 -14 43z"/>
<path d="M5973 2503 c9 -2 23 -2 30 0 6 3 -1 5 -18 5 -16 0 -22 -2 -12 -5z"/>
<path d="M5582 2460 c0 -19 2 -27 5 -17 2 9 2 25 0 35 -3 9 -5 1 -5 -18z"/>
<path d="M11045 2462 c-3 -8 -3 -17 0 -20 3 -3 5 0 5 6 0 7 11 12 25 12 14 0
25 -5 25 -12 0 -6 3 -9 6 -5 3 3 2 11 -3 19 -11 18 -51 18 -58 0z"/>
<path d="M11365 2462 c-3 -8 -3 -17 0 -20 3 -3 5 0 5 6 0 7 11 12 25 12 14 0
25 -5 25 -12 0 -6 3 -9 6 -5 3 3 2 11 -3 19 -11 18 -51 18 -58 0z"/>
<path d="M5968 2463 c6 -2 18 -2 25 0 6 3 1 5 -13 5 -14 0 -19 -2 -12 -5z"/>
<path d="M6208 2453 c7 -3 16 -2 19 1 4 3 -2 6 -13 5 -11 0 -14 -3 -6 -6z"/>
<path d="M11287 2448 c2 -5 10 -8 18 -8 8 0 16 3 18 8 3 4 -5 7 -18 7 -13 0
-21 -3 -18 -7z"/>
<path d="M11550 2449 c0 -5 9 -9 20 -9 11 0 20 2 20 4 0 2 -9 6 -20 9 -11 3
-20 1 -20 -4z"/>
<path d="M5865 2430 c3 -5 8 -10 11 -10 2 0 4 5 4 10 0 6 -5 10 -11 10 -5 0
-7 -4 -4 -10z"/>
<path d="M9022 2415 c0 -16 2 -22 5 -12 2 9 2 23 0 30 -3 6 -5 -1 -5 -18z"/>
<path d="M10555 2419 c-4 -6 -5 -12 -2 -15 2 -3 7 2 10 11 7 17 1 20 -8 4z"/>
<path d="M10596 2417 c3 -10 9 -15 12 -12 3 3 0 11 -7 18 -10 9 -11 8 -5 -6z"/>
<path d="M5510 2416 c0 -2 9 -6 20 -9 11 -3 18 -1 14 4 -5 9 -34 13 -34 5z"/>
<path d="M5973 2413 c9 -2 23 -2 30 0 6 3 -1 5 -18 5 -16 0 -22 -2 -12 -5z"/>
<path d="M10555 2359 c-4 -6 -5 -12 -2 -15 2 -3 7 2 10 11 7 17 1 20 -8 4z"/>
<path d="M10596 2357 c3 -10 9 -15 12 -12 3 3 0 11 -7 18 -10 9 -11 8 -5 -6z"/>
<path d="M9012 2243 c9 -2 19 -12 21 -21 4 -15 5 -15 6 1 0 9 7 17 15 17 8 0
17 -8 19 -17 4 -14 5 -12 6 5 1 20 -3 22 -41 21 -24 -1 -35 -3 -26 -6z"/>
<path d="M10568 2183 c13 -3 22 -12 22 -23 0 -11 -9 -20 -22 -23 -13 -2 -3 -4
22 -4 25 -1 37 1 28 4 -10 2 -18 13 -18 23 0 10 8 21 18 23 9 3 -3 5 -28 4
-25 0 -35 -2 -22 -4z"/>
<path d="M9031 2154 c0 -11 3 -14 6 -6 3 7 2 16 -1 19 -3 4 -6 -2 -5 -13z"/>
<path d="M9005 2109 c-4 -6 -5 -12 -2 -15 2 -3 7 2 10 11 7 17 1 20 -8 4z"/>
<path d="M9046 2105 c4 -8 8 -15 10 -15 2 0 4 7 4 15 0 8 -4 15 -10 15 -5 0
-7 -7 -4 -15z"/>
<path d="M10555 2069 c-4 -6 -5 -12 -2 -15 2 -3 7 2 10 11 7 17 1 20 -8 4z"/>
<path d="M10597 2059 c4 -13 8 -18 11 -10 2 7 -1 18 -6 23 -8 8 -9 4 -5 -13z"/>
<path d="M9005 2029 c-4 -6 -5 -12 -2 -15 2 -3 7 2 10 11 7 17 1 20 -8 4z"/>
<path d="M9046 2027 c3 -10 9 -15 12 -12 3 3 0 11 -7 18 -10 9 -11 8 -5 -6z"/>
<path d="M10555 2009 c-4 -6 -5 -12 -2 -15 2 -3 7 2 10 11 7 17 1 20 -8 4z"/>
<path d="M10597 1999 c4 -13 8 -18 11 -10 2 7 -1 18 -6 23 -8 8 -9 4 -5 -13z"/>
<path d="M9013 1943 c9 -2 17 -11 17 -18 0 -8 4 -16 9 -19 5 -4 7 3 4 14 -4
14 0 20 12 20 12 0 16 -6 12 -20 -3 -11 -1 -18 4 -14 5 3 9 14 9 25 0 16 -7
19 -42 18 -24 -1 -35 -3 -25 -6z"/>
<path d="M7670 1921 c0 -5 5 -13 10 -16 6 -3 10 -2 10 4 0 5 -4 13 -10 16 -5
3 -10 2 -10 -4z"/>
<path d="M7741 1883 c1 -27 4 -38 6 -25 2 12 8 22 12 22 5 0 16 -10 25 -22 15
-21 16 -21 7 -2 -6 12 -7 24 -4 28 3 3 -3 6 -15 6 -13 0 -22 6 -22 15 0 18 21
20 40 3 12 -11 12 -10 1 5 -7 9 -22 17 -32 17 -16 0 -19 -7 -18 -47z"/>
<path d="M7830 1920 c0 -5 7 -7 15 -4 8 4 15 8 15 10 0 2 -7 4 -15 4 -8 0 -15
-4 -15 -10z"/>
<path d="M7923 1885 c0 -27 2 -38 4 -22 2 15 2 37 0 50 -2 12 -4 0 -4 -28z"/>
<path d="M7970 1915 c0 -8 4 -15 10 -15 5 0 7 7 4 15 -4 8 -8 15 -10 15 -2 0
-4 -7 -4 -15z"/>
<path d="M8020 1899 c0 -28 -2 -30 -17 -18 -15 13 -15 12 -5 -8 22 -40 32 -36
32 11 0 25 -2 46 -5 46 -3 0 -5 -14 -5 -31z"/>
<path d="M7690 1883 c0 -7 -9 -13 -19 -13 -10 0 -22 -8 -26 -17 -5 -15 -4 -16
6 -5 7 6 21 12 30 12 10 0 20 -6 22 -12 4 -9 6 -8 6 2 0 8 -4 22 -9 30 -6 10
-10 11 -10 3z"/>
<path d="M7605 1859 c-4 -6 -14 -8 -24 -4 -13 5 -14 4 -3 -6 10 -11 15 -10 29
4 10 9 14 17 11 17 -4 0 -10 -5 -13 -11z"/>
<path d="M7830 1858 c0 -10 4 -18 9 -18 18 0 41 12 41 22 0 6 -7 5 -16 -3 -13
-10 -17 -10 -25 2 -7 11 -9 11 -9 -3z"/>
<path d="M9463 1763 c-4 -9 -2 -18 4 -20 5 -2 19 -10 29 -18 18 -13 18 -14 0
-21 -11 -4 -21 -2 -27 7 -6 10 -9 11 -9 1 0 -20 30 -26 47 -9 14 13 13 17 -11
32 -31 20 -34 40 -6 32 11 -3 18 -1 14 4 -9 15 -34 10 -41 -8z"/>
<path d="M9566 1764 c-3 -9 -4 -19 -1 -22 3 -3 5 1 5 9 0 11 2 11 10 -1 5 -8
10 -10 10 -5 0 6 -4 16 -9 23 -6 11 -10 10 -15 -4z"/>
<path d="M9642 1733 c1 -37 2 -41 5 -15 3 19 9 30 15 26 6 -4 6 2 -1 15 -17
31 -21 26 -19 -26z"/>
<path d="M9691 1752 c-1 -21 -5 -31 -12 -26 -6 4 -5 -4 2 -17 l14 -24 3 28 c2
15 1 37 -1 50 -3 15 -5 12 -6 -11z"/>
<path d="M9739 1771 c12 -8 51 -4 51 5 0 2 -15 4 -32 4 -23 0 -29 -3 -19 -9z"/>
<path d="M9826 1756 c-3 -13 -8 -31 -12 -39 -4 -11 1 -13 20 -10 17 4 26 1 26
-8 0 -7 3 -10 6 -7 7 8 -17 88 -26 88 -5 0 -11 -11 -14 -24z m24 -21 c0 -8 -4
-15 -10 -15 -5 0 -10 7 -10 15 0 8 5 15 10 15 6 0 10 -7 10 -15z"/>
<path d="M9968 1773 c28 -6 29 -31 0 -35 -12 -2 -23 -9 -24 -16 -1 -7 0 -8 3
-2 8 17 29 11 40 -12 8 -18 9 -14 9 23 -1 40 -3 44 -26 46 -22 1 -22 1 -2 -4z"/>
<path d="M10033 1735 c0 -27 2 -38 4 -22 2 15 2 37 0 50 -2 12 -4 0 -4 -28z"/>
<path d="M10070 1776 c0 -9 39 -13 51 -5 10 6 4 9 -18 9 -18 0 -33 -2 -33 -4z"/>
<path d="M10177 1773 c-10 -10 -8 -25 2 -19 5 3 11 -3 14 -14 3 -13 0 -20 -9
-20 -8 0 -14 6 -15 13 0 6 -5 1 -10 -12 -5 -13 -7 -26 -4 -29 3 -3 5 0 5 6 0
16 33 15 48 0 8 -8 7 5 -4 35 -17 50 -17 50 -27 40z"/>
<path d="M9056 1725 c4 -8 8 -15 10 -15 2 0 4 7 4 15 0 8 -4 15 -10 15 -5 0
-7 -7 -4 -15z"/>
<path d="M9545 1712 c-3 -8 -3 -17 0 -20 3 -3 5 0 5 6 0 7 11 12 25 12 14 0
25 -5 25 -12 0 -6 3 -9 6 -5 3 3 2 11 -3 19 -11 18 -51 18 -58 0z"/>
<path d="M9015 1639 c-4 -6 -5 -12 -2 -15 2 -3 7 2 10 11 7 17 1 20 -8 4z"/>
<path d="M9042 1630 c0 -14 2 -19 5 -12 2 6 2 18 0 25 -3 6 -5 1 -5 -13z"/>
<path d="M2221 1423 c1 -27 4 -38 6 -25 2 12 8 22 12 22 5 0 16 -10 25 -22 15
-21 16 -21 7 -2 -6 12 -7 24 -4 28 3 3 -3 6 -15 6 -13 0 -22 6 -22 15 0 18 21
20 40 3 12 -11 12 -10 1 5 -7 9 -22 17 -32 17 -16 0 -19 -7 -18 -47z"/>
<path d="M2310 1425 c0 -43 1 -45 28 -44 23 2 24 2 5 6 -27 5 -31 30 -5 36 16
4 16 5 0 6 -26 2 -22 29 5 34 19 4 18 4 -5 6 -27 1 -28 -1 -28 -44z"/>
<path d="M2394 1455 c-8 -19 1 -31 26 -38 11 -3 18 -1 14 4 -3 5 -12 9 -20 9
-8 0 -14 7 -14 16 0 11 6 15 20 11 11 -3 18 -1 14 4 -8 14 -34 11 -40 -6z"/>
<path d="M2473 1425 c0 -27 2 -38 4 -22 2 15 2 37 0 50 -2 12 -4 0 -4 -28z"/>
<path d="M2520 1425 c0 -38 3 -45 19 -45 11 0 22 4 25 9 4 5 -3 7 -14 4 -17
-5 -20 0 -20 32 0 32 3 37 20 32 11 -3 18 -1 14 4 -3 5 -14 9 -25 9 -16 0 -19
-7 -19 -45z"/>
<path d="M2610 1425 c0 -43 1 -45 28 -44 23 2 24 2 5 6 -27 5 -31 30 -5 36 16
4 16 5 0 6 -26 2 -22 29 5 34 19 4 18 4 -5 6 -27 1 -28 -1 -28 -44z"/>
<path d="M2692 1425 c1 -46 1 -47 7 -15 l7 35 17 -32 c10 -18 20 -33 22 -33 3
0 4 21 4 48 -2 46 -2 46 -9 12 -4 -19 -8 -30 -9 -25 -1 6 -10 21 -21 35 l-20
25 2 -50z"/>
<path d="M2797 1463 c-3 -5 5 -8 18 -8 13 0 21 3 18 8 -2 4 -10 7 -18 7 -8 0
-16 -3 -18 -7z"/>
<path d="M2883 1425 c0 -27 2 -38 4 -22 2 15 2 37 0 50 -2 12 -4 0 -4 -28z"/>
<path d="M2947 1463 c-10 -10 -8 -25 2 -19 5 3 11 -3 14 -14 3 -13 0 -20 -9
-20 -8 0 -14 6 -15 13 0 6 -5 1 -10 -12 -5 -13 -7 -26 -4 -29 3 -3 5 0 5 6 0
16 33 15 48 0 8 -8 7 5 -4 35 -17 50 -17 50 -27 40z"/>
<path d="M2571 1424 c0 -11 3 -14 6 -6 3 7 2 16 -1 19 -3 4 -6 -2 -5 -13z"/>
<path d="M4746 1411 c-4 -5 3 -7 14 -4 23 6 26 13 6 13 -8 0 -17 -4 -20 -9z"/>
<path d="M2397 1388 c2 -5 10 -8 18 -8 8 0 16 3 18 8 3 4 -5 7 -18 7 -13 0
-21 -3 -18 -7z"/>
<path d="M2797 1388 c2 -5 10 -8 18 -8 8 0 16 3 18 8 3 4 -5 7 -18 7 -13 0
-21 -3 -18 -7z"/>
<path d="M4915 1389 c-11 -16 -1 -19 13 -3 7 8 8 14 3 14 -5 0 -13 -5 -16 -11z"/>
<path d="M4997 1393 c-3 -5 5 -8 18 -8 13 0 21 3 18 8 -2 4 -10 7 -18 7 -8 0
-16 -3 -18 -7z"/>
<path d="M5220 1396 c0 -2 7 -7 16 -10 8 -3 12 -2 9 4 -6 10 -25 14 -25 6z"/>
<path d="M5317 1393 c-3 -5 5 -8 18 -8 13 0 21 3 18 8 -2 4 -10 7 -18 7 -8 0
-16 -3 -18 -7z"/>
<path d="M5395 1390 c-3 -6 1 -7 9 -4 18 7 21 14 7 14 -6 0 -13 -4 -16 -10z"/>
<path d="M5475 1390 c-3 -6 1 -7 9 -4 18 7 21 14 7 14 -6 0 -13 -4 -16 -10z"/>
<path d="M3028 1383 c6 -2 18 -2 25 0 6 3 1 5 -13 5 -14 0 -19 -2 -12 -5z"/>
<path d="M4732 1370 c0 -14 2 -19 5 -12 2 6 2 18 0 25 -3 6 -5 1 -5 -13z"/>
<path d="M5123 1373 c9 -2 25 -2 35 0 9 3 1 5 -18 5 -19 0 -27 -2 -17 -5z"/>
<path d="M5200 1356 c0 -13 3 -16 8 -10 4 7 16 14 27 16 17 3 15 5 -7 10 -24
4 -28 2 -28 -16z"/>
<path d="M4778 1363 c7 -3 16 -2 19 1 4 3 -2 6 -13 5 -11 0 -14 -3 -6 -6z"/>
<path d="M5316 1361 c-3 -4 6 -6 19 -3 14 2 25 6 25 8 0 8 -39 4 -44 -5z"/>
<path d="M4910 1341 c0 -10 19 -25 25 -20 1 2 -3 10 -11 17 -8 7 -14 8 -14 3z"/>
<path d="M4775 1330 c-16 -7 -17 -9 -3 -9 9 -1 20 4 23 9 7 11 7 11 -20 0z"/>
<path d="M4997 1328 c2 -5 10 -8 18 -8 8 0 16 3 18 8 3 4 -5 7 -18 7 -13 0
-21 -3 -18 -7z"/>
<path d="M5317 1329 c7 -7 15 -10 18 -7 3 3 -2 9 -12 12 -14 6 -15 5 -6 -5z"/>
<path d="M5397 1329 c7 -7 15 -10 18 -7 3 3 -2 9 -12 12 -14 6 -15 5 -6 -5z"/>
<path d="M5477 1328 c2 -5 10 -8 18 -8 8 0 16 3 18 8 3 4 -5 7 -18 7 -13 0
-21 -3 -18 -7z"/>
<path d="M7002 1318 c-7 -7 -12 -43 -12 -93 0 -50 5 -86 12 -93 7 -7 43 -12
93 -12 50 0 86 5 93 12 7 7 12 43 12 93 0 50 -5 86 -12 93 -7 7 -43 12 -93 12
-50 0 -86 -5 -93 -12z m183 -93 l0 -90 -90 0 -90 0 -3 79 c-2 44 -1 85 2 93 4
11 26 13 93 11 l88 -3 0 -90z"/>
<path d="M2071 1304 c0 -11 3 -14 6 -6 3 7 2 16 -1 19 -3 4 -6 -2 -5 -13z"/>
<path d="M2160 1275 c0 -43 1 -45 28 -44 23 2 24 2 5 6 -27 5 -31 30 -5 36 16
4 16 5 0 6 -26 2 -22 29 5 34 19 4 18 4 -5 6 -27 1 -28 -1 -28 -44z"/>
<path d="M2242 1278 c-2 -46 -1 -48 26 -47 22 1 23 2 5 6 -18 3 -23 13 -26 46
l-4 42 -1 -47z"/>
<path d="M2320 1275 c0 -43 1 -45 28 -44 23 2 24 2 5 6 -27 5 -31 30 -5 36 16
4 16 5 0 6 -26 2 -22 29 5 34 19 4 18 4 -5 6 -27 1 -28 -1 -28 -44z"/>
<path d="M2418 1313 c13 -3 19 -9 16 -15 -4 -7 -2 -8 4 -4 21 13 13 26 -15 25
-24 -2 -25 -2 -5 -6z"/>
<path d="M2531 1306 c-9 -11 -6 -18 16 -34 31 -22 24 -44 -7 -24 -11 7 -20 8
-20 3 0 -12 37 -24 50 -16 18 11 10 32 -17 44 -27 12 -27 13 -8 27 10 8 14 14
8 14 -6 0 -16 -6 -22 -14z"/>
<path d="M2630 1311 c0 -5 5 -13 10 -16 6 -3 10 -2 10 4 0 5 -4 13 -10 16 -5
3 -10 2 -10 -4z"/>
<path d="M2701 1273 c1 -27 4 -38 6 -25 2 12 8 22 12 22 5 0 16 -10 25 -22
l17 -23 -11 23 c-6 12 -8 26 -5 31 3 5 -4 7 -15 4 -14 -4 -20 0 -20 12 0 12 6
16 20 12 11 -3 18 -1 14 4 -3 5 -14 9 -25 9 -16 0 -19 -7 -18 -47z"/>
<path d="M2797 1313 c-3 -5 5 -8 18 -8 13 0 21 3 18 8 -2 4 -10 7 -18 7 -8 0
-16 -3 -18 -7z"/>
<path d="M2871 1273 c1 -27 4 -38 6 -26 2 12 12 24 21 26 15 4 15 5 0 6 -26 2
-22 29 5 34 19 4 18 4 -5 6 -27 1 -28 -1 -27 -46z"/>
<path d="M2953 1275 c0 -27 2 -38 4 -22 2 15 2 37 0 50 -2 12 -4 0 -4 -28z"/>
<path d="M3000 1311 c0 -5 9 -7 20 -4 11 3 20 7 20 9 0 2 -9 4 -20 4 -11 0
-20 -4 -20 -9z"/>
<path d="M3150 1275 c0 -37 3 -45 18 -45 24 0 42 19 42 45 0 26 -18 45 -42 45
-15 0 -18 -8 -18 -45z m45 0 c0 -20 -6 -31 -17 -33 -15 -3 -18 4 -18 33 0 29
3 36 18 33 11 -2 17 -13 17 -33z"/>
<path d="M2810 1271 c29 -23 19 -41 -13 -22 -21 13 -21 12 -5 -4 19 -21 51
-13 46 11 -2 9 -14 21 -28 25 l-25 9 25 -19z"/>
<path d="M2083 1267 c4 -10 7 -24 7 -30 0 -8 3 -8 11 0 9 9 7 16 -7 30 -17 17
-18 17 -11 0z"/>
<path d="M2410 1261 c-15 -28 -13 -31 18 -30 23 2 24 2 5 6 -19 4 -21 8 -13
24 6 10 8 19 6 19 -3 0 -10 -9 -16 -19z"/>
<path d="M2650 1273 c0 -7 -9 -13 -19 -13 -10 0 -22 -8 -26 -17 -5 -15 -4 -16
6 -5 7 6 21 12 30 12 10 0 20 -6 22 -12 4 -9 6 -8 6 2 0 8 -4 22 -9 30 -6 10
-10 11 -10 3z"/>
<path d="M3000 1271 c0 -5 9 -7 20 -4 11 3 20 7 20 9 0 2 -9 4 -20 4 -11 0
-20 -4 -20 -9z"/>
<path d="M7240 1276 c0 -2 9 -6 20 -9 11 -3 18 -1 14 4 -5 9 -34 13 -34 5z"/>
<path d="M7309 1269 c-2 -29 3 -74 9 -81 4 -4 6 13 5 38 -1 43 -12 74 -14 43z"/>
<path d="M7220 1251 c0 -10 19 -25 25 -20 1 2 -3 10 -11 17 -8 7 -14 8 -14 3z"/>
<path d="M7353 1220 c0 -25 2 -35 4 -22 2 12 2 32 0 45 -2 12 -4 2 -4 -23z"/>
<path d="M7406 1251 c-3 -5 3 -7 14 -4 11 3 20 1 20 -5 0 -6 -10 -13 -22 -15
-19 -4 -18 -5 5 -6 22 -1 28 3 25 16 -4 20 -33 29 -42 14z"/>
<path d="M7523 1220 c0 -25 2 -35 4 -22 2 12 2 32 0 45 -2 12 -4 2 -4 -23z"/>
<path d="M7557 1253 c-3 -5 5 -8 18 -8 13 0 21 3 18 8 -2 4 -10 7 -18 7 -8 0
-16 -3 -18 -7z"/>
<path d="M3000 1239 c0 -5 11 -9 25 -9 14 0 25 2 25 4 0 2 -11 6 -25 8 -14 3
-25 1 -25 -3z"/>
<path d="M3088 1233 c6 -2 18 -2 25 0 6 3 1 5 -13 5 -14 0 -19 -2 -12 -5z"/>
<path d="M7472 1220 c0 -14 2 -19 5 -12 2 6 2 18 0 25 -3 6 -5 1 -5 -13z"/>
<path d="M7556 1221 c-3 -4 6 -6 19 -3 14 2 25 6 25 8 0 8 -39 4 -44 -5z"/>
<path d="M8710 1145 c0 -36 3 -65 8 -65 4 0 7 29 7 65 0 36 -3 65 -7 65 -5 0
-8 -29 -8 -65z"/>
<path d="M7255 1190 c-16 -7 -17 -9 -3 -9 9 -1 20 4 23 9 7 11 7 11 -20 0z"/>
<path d="M7408 1188 c5 -5 16 -8 23 -6 8 3 3 7 -10 11 -17 4 -21 3 -13 -5z"/>
<path d="M7557 1189 c7 -7 15 -10 18 -7 3 3 -2 9 -12 12 -14 6 -15 5 -6 -5z"/>
<path d="M7900 1196 c0 -2 9 -6 20 -9 11 -3 18 -1 14 4 -5 9 -34 13 -34 5z"/>
<path d="M8261 1148 c1 -29 4 -41 6 -26 3 18 12 28 26 31 l22 4 -22 2 c-33 2
-29 29 5 34 25 4 25 4 -5 6 l-33 1 1 -52z"/>
<path d="M8757 1193 c-3 -5 5 -8 18 -8 13 0 21 3 18 8 -2 4 -10 7 -18 7 -8 0
-16 -3 -18 -7z"/>
<path d="M7880 1171 c0 -10 19 -25 25 -20 1 2 -3 10 -11 17 -8 7 -14 8 -14 3z"/>
<path d="M8013 1140 c0 -25 2 -35 4 -22 2 12 2 32 0 45 -2 12 -4 2 -4 -23z"/>
<path d="M8044 1169 c-3 -6 -1 -16 5 -22 9 -9 10 -7 5 7 -6 16 -4 18 14 14 12
-4 20 -2 16 3 -7 12 -31 11 -40 -2z"/>
<path d="M8147 1173 c6 -4 13 -24 16 -43 4 -34 4 -33 3 4 -1 26 -6 41 -16 43
-10 3 -11 2 -3 -4z"/>
<path d="M8193 1140 c0 -25 2 -35 4 -22 2 12 2 32 0 45 -2 12 -4 2 -4 -23z"/>
<path d="M8567 1173 c-3 -5 5 -8 18 -8 13 0 21 3 18 8 -2 4 -10 7 -18 7 -8 0
-16 -3 -18 -7z"/>
<path d="M8633 1140 c0 -25 2 -35 4 -22 2 12 2 32 0 45 -2 12 -4 2 -4 -23z"/>
<path d="M7500 1160 c-9 -6 -10 -10 -3 -10 6 0 15 5 18 10 8 12 4 12 -15 0z"/>
<path d="M8422 1140 c0 -14 2 -19 5 -12 2 6 2 18 0 25 -3 6 -5 1 -5 -13z"/>
<path d="M8779 1143 c-13 -16 -12 -17 4 -4 16 13 21 21 13 21 -2 0 -10 -8 -17
-17z"/>
<path d="M8573 1143 c9 -2 23 -2 30 0 6 3 -1 5 -18 5 -16 0 -22 -2 -12 -5z"/>
<path d="M10581 1134 c0 -11 3 -14 6 -6 3 7 2 16 -1 19 -3 4 -6 -2 -5 -13z"/>
<path d="M10673 1105 c0 -27 2 -38 4 -22 2 15 2 37 0 50 -2 12 -4 0 -4 -28z"/>
<path d="M10881 1109 c-7 -23 -10 -44 -7 -47 3 -3 6 0 6 6 0 7 9 12 20 12 11
0 20 -5 20 -12 0 -6 3 -9 6 -5 7 7 -14 75 -25 82 -5 2 -14 -14 -20 -36z m29
-4 c0 -8 -4 -15 -10 -15 -5 0 -10 7 -10 15 0 8 5 15 10 15 6 0 10 -7 10 -15z"/>
<path d="M11010 1142 c0 -6 9 -8 20 -5 14 4 20 0 20 -11 0 -9 -8 -16 -20 -16
-11 0 -20 -4 -20 -10 0 -5 6 -7 13 -4 8 3 18 -5 23 -17 9 -19 10 -15 10 22 -1
38 -4 44 -23 47 -13 2 -23 -1 -23 -6z"/>
<path d="M11090 1105 c0 -43 1 -45 28 -44 23 2 24 2 5 6 -27 5 -31 30 -5 36
16 4 16 5 0 6 -26 2 -22 29 5 34 19 4 18 4 -5 6 -27 1 -28 -1 -28 -44z"/>
<path d="M11171 1134 c0 -11 3 -14 6 -6 3 7 2 16 -1 19 -3 4 -6 -2 -5 -13z"/>
<path d="M11272 1138 c-28 -28 -2 -88 33 -74 12 4 15 16 13 43 -3 40 -23 54
-46 31z m36 -37 c3 -27 0 -32 -15 -29 -19 3 -28 30 -19 54 10 26 31 10 34 -25z"/>
<path d="M4328 1123 c6 -2 18 -2 25 0 6 3 1 5 -13 5 -14 0 -19 -2 -12 -5z"/>
<path d="M4826 1121 c-4 -5 3 -7 14 -4 23 6 26 13 6 13 -8 0 -17 -4 -20 -9z"/>
<path d="M8460 1119 c0 -5 5 -7 10 -4 6 3 10 8 10 11 0 2 -4 4 -10 4 -5 0 -10
-5 -10 -11z"/>
<path d="M1241 1104 c0 -11 3 -14 6 -6 3 7 2 16 -1 19 -3 4 -6 -2 -5 -13z"/>
<path d="M7915 1110 c-16 -7 -17 -9 -3 -9 9 -1 20 4 23 9 7 11 7 11 -20 0z"/>
<path d="M7977 1109 c7 -7 15 -10 18 -7 3 3 -2 9 -12 12 -14 6 -15 5 -6 -5z"/>
<path d="M8047 1108 c2 -5 10 -8 18 -8 8 0 16 3 18 8 3 4 -5 7 -18 7 -13 0
-21 -3 -18 -7z"/>
<path d="M8568 1108 c5 -5 16 -8 23 -6 8 3 3 7 -10 11 -17 4 -21 3 -13 -5z"/>
<path d="M4084 1097 c-2 -7 -4 -54 -2 -103 l3 -89 100 0 100 0 0 100 0 100
-98 3 c-75 2 -99 0 -103 -11z m191 -92 l0 -90 -90 0 -90 0 -3 79 c-2 44 -1 85
2 93 4 11 26 13 93 11 l88 -3 0 -90z"/>
<path d="M4370 1097 c0 -9 -11 -17 -27 -20 l-28 -4 28 -2 c26 -1 48 22 33 36
-3 4 -6 -1 -6 -10z"/>
<path d="M4433 1100 c9 -6 17 -20 17 -30 0 -10 -8 -24 -17 -30 -11 -7 -12 -10
-4 -7 24 6 37 35 25 54 -6 9 -17 18 -25 20 -8 3 -7 0 4 -7z"/>
<path d="M4484 1099 c-3 -6 -1 -16 5 -22 9 -9 10 -7 5 7 -6 16 -4 18 14 14 12
-4 20 -2 16 3 -7 12 -31 11 -40 -2z"/>
<path d="M4570 1106 c0 -2 7 -7 16 -10 8 -3 12 -2 9 4 -6 10 -25 14 -25 6z"/>
<path d="M4635 1100 c-3 -6 1 -7 9 -4 18 7 21 14 7 14 -6 0 -13 -4 -16 -10z"/>
<path d="M4716 1101 c-4 -5 3 -7 14 -4 23 6 26 13 6 13 -8 0 -17 -4 -20 -9z"/>
<path d="M4903 1070 c0 -25 2 -35 4 -22 2 12 2 32 0 45 -2 12 -4 2 -4 -23z"/>
<path d="M4945 1100 c-3 -6 1 -7 9 -4 18 7 21 14 7 14 -6 0 -13 -4 -16 -10z"/>
<path d="M5013 1070 c0 -25 2 -35 4 -22 2 12 2 32 0 45 -2 12 -4 2 -4 -23z"/>
<path d="M5107 1103 c-3 -5 5 -8 18 -8 13 0 21 3 18 8 -2 4 -10 7 -18 7 -8 0
-16 -3 -18 -7z"/>
<path d="M5185 1100 c-3 -6 1 -7 9 -4 18 7 21 14 7 14 -6 0 -13 -4 -16 -10z"/>
<path d="M8763 1103 c9 -2 25 -2 35 0 9 3 1 5 -18 5 -19 0 -27 -2 -17 -5z"/>
<path d="M10593 1097 c4 -10 7 -24 7 -30 0 -8 3 -8 11 0 9 9 7 16 -7 30 -17
17 -18 17 -11 0z"/>
<path d="M4834 1085 c11 -8 23 -15 27 -15 4 0 10 -8 12 -17 4 -17 5 -17 6 -1
1 10 -12 24 -31 33 -29 14 -31 14 -14 0z"/>
<path d="M4733 1080 c-28 -11 -30 -20 -4 -13 14 4 21 -1 24 -19 3 -18 5 -16 6
10 0 17 0 32 -1 31 -2 0 -13 -4 -25 -9z"/>
<path d="M4958 1083 c-16 -2 -28 -8 -28 -12 0 -4 14 -6 30 -3 17 2 30 8 30 13
0 5 -1 8 -2 8 -2 -1 -15 -4 -30 -6z"/>
<path d="M11197 1083 c-4 -3 -7 -11 -7 -17 0 -6 5 -5 12 2 6 6 9 14 7 17 -3 3
-9 2 -12 -2z"/>
<path d="M4578 1073 c7 -3 16 -2 19 1 4 3 -2 6 -13 5 -11 0 -14 -3 -6 -6z"/>
<path d="M5106 1071 c-3 -4 6 -6 19 -3 14 2 25 6 25 8 0 8 -39 4 -44 -5z"/>
<path d="M10720 1069 c0 -5 9 -9 20 -9 11 0 20 2 20 4 0 2 -9 6 -20 9 -11 3
-20 1 -20 -4z"/>
<path d="M11360 1069 c0 -5 9 -9 20 -9 11 0 20 2 20 4 0 2 -9 6 -20 9 -11 3
-20 1 -20 -4z"/>
<path d="M4517 1053 c5 -13 2 -15 -17 -10 -16 4 -20 3 -12 -5 14 -14 42 -3 42
17 0 8 -4 15 -10 15 -5 0 -7 -7 -3 -17z"/>
<path d="M4553 1056 c1 -11 9 -21 17 -23 10 -3 11 -2 4 4 -6 4 -14 15 -17 23
-5 11 -6 9 -4 -4z"/>
<path d="M5215 1058 c4 -11 0 -18 -12 -21 -15 -4 -16 -5 -1 -6 22 -1 33 18 19
32 -9 9 -11 8 -6 -5z"/>
<path d="M10808 1063 c6 -2 18 -2 25 0 6 3 1 5 -13 5 -14 0 -19 -2 -12 -5z"/>
<path d="M8663 1005 c0 -33 2 -45 4 -27 2 18 2 45 0 60 -2 15 -4 0 -4 -33z"/>
<path d="M8805 995 c0 -36 3 -65 8 -65 4 0 7 29 7 65 0 36 -3 65 -7 65 -5 0
-8 -29 -8 -65z"/>
<path d="M4637 1039 c7 -7 15 -10 18 -7 3 3 -2 9 -12 12 -14 6 -15 5 -6 -5z"/>
<path d="M4828 1038 c5 -5 16 -8 23 -6 8 3 3 7 -10 11 -17 4 -21 3 -13 -5z"/>
<path d="M4948 1038 c5 -5 16 -8 23 -6 8 3 3 7 -10 11 -17 4 -21 3 -13 -5z"/>
<path d="M5107 1039 c7 -7 15 -10 18 -7 3 3 -2 9 -12 12 -14 6 -15 5 -6 -5z"/>
<path d="M8010 1000 c0 -46 2 -50 24 -50 14 0 27 4 30 9 3 4 -6 6 -19 3 -21
-3 -25 0 -25 18 0 18 5 21 23 18 14 -3 24 0 24 7 0 7 -10 10 -24 7 -17 -3 -23
0 -23 13 0 13 6 16 25 13 13 -3 22 -1 19 3 -3 5 -16 9 -30 9 -22 0 -24 -4 -24
-50z"/>
<path d="M8460 1010 c-4 -39 -8 -45 -27 -44 -12 0 -20 -3 -17 -8 8 -13 30 -9
43 6 7 8 11 32 9 53 l-4 38 -4 -45z"/>
<path d="M8173 990 c0 -25 2 -35 4 -22 2 12 2 32 0 45 -2 12 -4 2 -4 -23z"/>
<path d="M8223 990 c0 -25 2 -35 4 -22 2 12 2 32 0 45 -2 12 -4 2 -4 -23z"/>
<path d="M8333 1020 c9 -6 17 -20 17 -30 0 -10 -8 -24 -17 -30 -11 -7 -12 -10
-4 -7 8 2 19 11 25 20 12 19 -1 48 -25 54 -8 3 -7 0 4 -7z"/>
<path d="M8510 1026 c0 -2 7 -7 16 -10 8 -3 12 -2 9 4 -6 10 -25 14 -25 6z"/>
<path d="M8573 990 c0 -25 2 -35 4 -22 2 12 2 32 0 45 -2 12 -4 2 -4 -23z"/>
<path d="M8625 1020 c-3 -6 1 -7 9 -4 18 7 21 14 7 14 -6 0 -13 -4 -16 -10z"/>
<path d="M8757 1023 c6 -4 13 -24 16 -43 4 -34 4 -33 3 4 -1 26 -6 41 -16 43
-10 3 -11 2 -3 -4z"/>
<path d="M8125 1000 c-17 -7 -17 -9 -2 -9 9 -1 17 -5 17 -11 0 -5 -8 -13 -17
-19 -16 -9 -15 -10 5 -8 17 1 22 7 22 29 0 15 -1 28 -2 27 -2 0 -12 -4 -23 -9z"/>
<path d="M7903 993 c9 -2 25 -2 35 0 9 3 1 5 -18 5 -19 0 -27 -2 -17 -5z"/>
<path d="M8518 993 c7 -3 16 -2 19 1 4 3 -2 6 -13 5 -11 0 -14 -3 -6 -6z"/>
<path d="M8493 976 c1 -11 9 -21 17 -23 10 -3 11 -2 4 4 -6 4 -14 15 -17 23
-5 11 -6 9 -4 -4z"/>
<path d="M4512 968 c-27 -27 -8 -89 28 -87 9 0 6 4 -7 9 -17 7 -23 18 -23 40
0 22 6 33 23 40 13 5 16 9 7 9 -9 1 -21 -4 -28 -11z"/>
<path d="M5078 973 c6 -2 18 -2 25 0 6 3 1 5 -13 5 -14 0 -19 -2 -12 -5z"/>
<path d="M5370 976 c0 -2 9 -6 20 -9 11 -3 18 -1 14 4 -5 9 -34 13 -34 5z"/>
<path d="M8627 959 c7 -7 15 -10 18 -7 3 3 -2 9 -12 12 -14 6 -15 5 -6 -5z"/>
<path d="M4410 956 c0 -2 7 -7 16 -10 8 -3 12 -2 9 4 -6 10 -25 14 -25 6z"/>
<path d="M4673 920 c0 -25 2 -35 4 -22 2 12 2 32 0 45 -2 12 -4 2 -4 -23z"/>
<path d="M4725 950 c-3 -6 1 -7 9 -4 18 7 21 14 7 14 -6 0 -13 -4 -16 -10z"/>
<path d="M4807 953 c-3 -5 5 -8 18 -8 13 0 21 3 18 8 -2 4 -10 7 -18 7 -8 0
-16 -3 -18 -7z"/>
<path d="M4900 956 c0 -2 7 -7 16 -10 8 -3 12 -2 9 4 -6 10 -25 14 -25 6z"/>
<path d="M5350 951 c0 -10 19 -25 25 -20 1 2 -3 10 -11 17 -8 7 -14 8 -14 3z"/>
<path d="M9829 915 c-3 -31 -8 -40 -23 -38 -13 1 -15 -2 -7 -10 19 -19 43 15
39 54 l-4 34 -5 -40z"/>
<path d="M9890 941 c0 -5 5 -13 10 -16 6 -3 10 -2 10 4 0 5 -4 13 -10 16 -5 3
-10 2 -10 -4z"/>
<path d="M9961 903 c1 -27 4 -38 6 -25 2 12 8 22 12 22 5 0 16 -10 25 -22 15
-21 16 -21 7 -2 -6 12 -7 24 -4 28 3 3 -3 6 -15 6 -13 0 -22 6 -22 15 0 18 21
20 40 3 12 -11 12 -10 1 5 -7 9 -22 17 -32 17 -16 0 -19 -7 -18 -47z"/>
<path d="M10050 905 c0 -25 4 -45 9 -45 19 0 41 12 41 23 0 7 -4 7 -12 -1 -7
-7 -16 -12 -20 -12 -13 0 -9 68 5 73 7 3 5 6 -5 6 -15 1 -18 -8 -18 -44z"/>
<path d="M10143 905 c0 -27 2 -38 4 -22 2 15 2 37 0 50 -2 12 -4 0 -4 -28z"/>
<path d="M10190 935 c0 -8 4 -15 10 -15 5 0 7 7 4 15 -4 8 -8 15 -10 15 -2 0
-4 -7 -4 -15z"/>
<path d="M10240 919 c0 -28 -2 -30 -17 -18 -15 13 -15 12 -5 -8 22 -40 32 -36
32 11 0 25 -2 46 -5 46 -3 0 -5 -14 -5 -31z"/>
<path d="M4312 920 c0 -14 2 -19 5 -12 2 6 2 18 0 25 -3 6 -5 1 -5 -13z"/>
<path d="M4390 916 c0 -13 3 -16 8 -10 4 7 16 14 27 16 17 3 15 5 -7 10 -24 4
-28 2 -28 -16z"/>
<path d="M4642 920 c0 -14 2 -19 5 -12 2 6 2 18 0 25 -3 6 -5 1 -5 -13z"/>
<path d="M4985 930 c-17 -7 -17 -9 -2 -9 9 -1 17 -5 17 -11 0 -5 -8 -13 -17
-19 -16 -9 -15 -10 5 -8 17 1 22 7 22 29 0 15 -1 28 -2 27 -2 0 -12 -4 -23 -9z"/>
<path d="M5078 933 c6 -2 18 -2 25 0 6 3 1 5 -13 5 -14 0 -19 -2 -12 -5z"/>
<path d="M5273 933 c9 -2 25 -2 35 0 9 3 1 5 -18 5 -19 0 -27 -2 -17 -5z"/>
<path d="M4361 918 c-1 -9 -9 -22 -18 -27 -10 -6 -13 -11 -7 -11 17 0 37 27
31 42 -4 8 -6 7 -6 -4z"/>
<path d="M5121 904 c0 -11 3 -14 6 -6 3 7 2 16 -1 19 -3 4 -6 -2 -5 -13z"/>
<path d="M5160 915 c0 -5 5 -17 10 -25 5 -8 10 -10 10 -5 0 6 -5 17 -10 25 -5
8 -10 11 -10 5z"/>
<path d="M9911 903 c-1 -7 -10 -13 -20 -13 -10 0 -22 -8 -26 -17 -5 -15 -4
-16 6 -5 16 15 49 16 49 0 0 -6 2 -9 5 -6 3 3 1 16 -4 29 -5 13 -10 18 -10 12z"/>
<path d="M4727 889 c7 -7 15 -10 18 -7 3 3 -2 9 -12 12 -14 6 -15 5 -6 -5z"/>
<path d="M4807 888 c2 -5 10 -8 18 -8 8 0 16 3 18 8 3 4 -5 7 -18 7 -13 0 -21
-3 -18 -7z"/>
<path d="M4910 890 c-9 -6 -10 -10 -3 -10 6 0 15 5 18 10 8 12 4 12 -15 0z"/>
<path d="M5385 890 c-16 -7 -17 -9 -3 -9 9 -1 20 4 23 9 7 11 7 11 -20 0z"/>
<path d="M5078 883 c6 -2 18 -2 25 0 6 3 1 5 -13 5 -14 0 -19 -2 -12 -5z"/>
<path d="M1141 844 c0 -11 3 -14 6 -6 3 7 2 16 -1 19 -3 4 -6 -2 -5 -13z"/>
<path d="M1177 840 c-3 -11 -1 -20 4 -20 5 0 9 9 9 20 0 11 -2 20 -4 20 -2 0
-6 -9 -9 -20z"/>
<path d="M1711 793 c1 -26 4 -38 6 -26 3 13 13 23 26 25 34 5 29 42 -5 46 -27
3 -28 2 -27 -45z m49 22 c0 -8 -9 -15 -20 -15 -11 0 -20 7 -20 15 0 8 9 15 20
15 11 0 20 -7 20 -15z"/>
<path d="M1810 831 c0 -5 5 -13 10 -16 6 -3 10 -2 10 4 0 5 -4 13 -10 16 -5 3
-10 2 -10 -4z"/>
<path d="M1881 793 c1 -27 4 -38 6 -25 2 12 8 22 12 22 5 0 16 -10 25 -22 14
-20 15 -20 7 -2 -6 11 -6 26 -1 34 11 18 -6 40 -31 40 -16 0 -19 -7 -18 -47z
m42 22 c1 -5 -6 -11 -15 -13 -11 -2 -18 3 -18 13 0 17 30 18 33 0z"/>
<path d="M1983 833 c-7 -2 -13 -17 -13 -33 0 -27 11 -42 40 -52 19 -7 26 58 9
78 -12 15 -16 16 -36 7z m32 -39 c0 -19 -5 -29 -15 -29 -16 0 -25 28 -16 51
10 25 31 10 31 -22z"/>
<path d="M2061 809 c-1 -40 19 -65 44 -55 11 4 14 18 13 48 l-1 43 -4 -43 c-3
-34 -8 -43 -21 -40 -11 2 -19 17 -23 43 l-6 40 -2 -36z"/>
<path d="M2168 833 c6 -2 18 -2 25 0 6 3 1 5 -13 5 -14 0 -19 -2 -12 -5z"/>
<path d="M1830 793 c0 -7 -9 -13 -19 -13 -10 0 -22 -8 -26 -17 -5 -15 -4 -16
6 -5 7 6 21 12 30 12 10 0 20 -6 22 -12 4 -9 6 -8 6 2 0 8 -4 22 -9 30 -6 10
-10 11 -10 3z"/>
<path d="M2163 793 c9 -2 23 -2 30 0 6 3 -1 5 -18 5 -16 0 -22 -2 -12 -5z"/>
<path d="M9700 755 c0 -43 1 -45 28 -44 23 2 24 2 5 6 -27 5 -31 30 -5 36 16
4 16 5 0 6 -26 2 -22 29 5 34 19 4 18 4 -5 6 -27 1 -28 -1 -28 -44z"/>
<path d="M9787 793 c-14 -14 -6 -30 21 -41 27 -12 27 -12 5 4 -28 20 -30 38
-3 31 11 -3 18 -1 14 4 -6 11 -28 12 -37 2z"/>
<path d="M9870 793 c0 -5 11 -8 24 -8 13 0 22 3 19 8 -2 4 -13 7 -24 7 -10 0
-19 -3 -19 -7z"/>
<path d="M10002 755 c1 -45 1 -47 7 -15 l6 35 22 -35 23 -35 -1 50 c-2 47 -2
48 -9 15 -4 -19 -8 -30 -9 -25 -1 6 -10 21 -21 35 l-20 25 2 -50z"/>
<path d="M10100 778 c-10 -22 -10 -22 4 -4 20 24 46 14 46 -19 0 -33 -26 -43
-46 -19 -14 18 -14 18 -4 -3 18 -38 60 -22 60 22 0 44 -42 60 -60 23z"/>
<path d="M10197 793 c-14 -14 -6 -30 21 -41 27 -12 27 -12 5 4 -28 20 -30 38
-3 31 11 -3 18 -1 14 4 -6 11 -28 12 -37 2z"/>
<path d="M10296 784 c-3 -9 -4 -19 -1 -22 3 -3 5 1 5 9 0 11 2 11 10 -1 5 -8
10 -10 10 -5 0 6 -4 16 -9 23 -6 11 -10 10 -15 -4z"/>
<path d="M9893 763 c-13 -2 -23 -8 -23 -12 0 -5 11 -6 25 -3 14 2 25 8 25 13
0 5 -1 8 -2 8 -2 -1 -13 -4 -25 -6z"/>
<path d="M2168 753 c6 -2 18 -2 25 0 6 3 1 5 -13 5 -14 0 -19 -2 -12 -5z"/>
<path d="M10275 732 c-3 -8 -3 -17 0 -20 3 -3 5 0 5 6 0 7 11 12 25 12 14 0
25 -5 25 -12 0 -6 3 -9 6 -5 3 3 2 11 -3 19 -11 18 -51 18 -58 0z"/>
<path d="M9787 718 c2 -5 10 -8 18 -8 8 0 16 3 18 8 3 4 -5 7 -18 7 -13 0 -21
-3 -18 -7z"/>
<path d="M10197 718 c2 -5 10 -8 18 -8 8 0 16 3 18 8 3 4 -5 7 -18 7 -13 0
-21 -3 -18 -7z"/>
<path d="M1616 666 c-3 -13 -9 -31 -12 -39 -4 -12 0 -14 16 -10 13 4 26 0 31
-8 14 -23 11 7 -5 46 -18 41 -22 43 -30 11z m24 -21 c0 -8 -4 -15 -10 -15 -5
0 -10 7 -10 15 0 8 5 15 10 15 6 0 10 -7 10 -15z"/>
<path d="M1680 686 c0 -9 39 -13 51 -5 10 6 4 9 -18 9 -18 0 -33 -2 -33 -4z"/>
<path d="M1772 648 c-2 -46 -1 -48 26 -47 22 1 23 2 5 6 -18 3 -23 13 -26 46
l-4 42 -1 -47z"/>
<path d="M1870 681 c0 -5 5 -13 10 -16 6 -3 10 -2 10 4 0 5 -4 13 -10 16 -5 3
-10 2 -10 -4z"/>
<path d="M1942 645 c1 -45 1 -47 7 -15 l6 35 22 -35 c13 -19 23 -29 23 -23 0
7 -7 21 -15 30 -8 10 -21 27 -29 38 -14 19 -15 16 -14 -30z"/>
<path d="M1992 665 c0 -16 2 -22 5 -12 2 9 2 23 0 30 -3 6 -5 -1 -5 -18z"/>
<path d="M2040 683 c8 -3 17 -9 20 -13 3 -4 11 -2 18 6 11 12 8 14 -20 13 -18
0 -26 -3 -18 -6z"/>
<path d="M2123 645 c0 -27 2 -38 4 -22 2 15 2 37 0 50 -2 12 -4 0 -4 -28z"/>
<path d="M2177 683 c-3 -5 5 -8 18 -8 13 0 21 3 18 8 -2 4 -10 7 -18 7 -8 0
-16 -3 -18 -7z"/>
<path d="M2276 674 c-3 -9 -4 -19 -1 -22 3 -3 5 1 5 9 0 11 2 11 10 -1 5 -8
10 -10 10 -5 0 6 -4 16 -9 23 -6 11 -10 10 -15 -4z"/>
<path d="M2161 644 c0 -11 3 -14 6 -6 3 7 2 16 -1 19 -3 4 -6 -2 -5 -13z"/>
<path d="M1890 643 c0 -7 -9 -13 -19 -13 -10 0 -22 -8 -26 -17 -5 -15 -4 -16
6 -5 7 6 21 12 30 12 10 0 20 -6 22 -12 4 -9 6 -8 6 2 0 8 -4 22 -9 30 -6 10
-10 11 -10 3z"/>
<path d="M2255 622 c-3 -8 -3 -17 0 -20 3 -3 5 0 5 6 0 7 11 12 25 12 14 0 25
-5 25 -12 0 -6 3 -9 6 -5 3 3 2 11 -3 19 -11 18 -51 18 -58 0z"/>
<path d="M2177 608 c2 -5 10 -8 18 -8 8 0 16 3 18 8 3 4 -5 7 -18 7 -13 0 -21
-3 -18 -7z"/>
<path d="M558 273 c7 -3 16 -2 19 1 4 3 -2 6 -13 5 -11 0 -14 -3 -6 -6z"/>
<path d="M2397 273 c-10 -9 -9 -23 1 -23 5 0 9 7 9 15 0 17 -1 18 -10 8z"/>
<path d="M1857 250 c-3 -11 -1 -20 4 -20 5 0 9 9 9 20 0 11 -2 20 -4 20 -2 0
-6 -9 -9 -20z"/>
<path d="M368 243 c7 -3 16 -2 19 1 4 3 -2 6 -13 5 -11 0 -14 -3 -6 -6z"/>
<path d="M493 243 c9 -2 23 -2 30 0 6 3 -1 5 -18 5 -16 0 -22 -2 -12 -5z"/>
<path d="M628 243 c7 -3 16 -2 19 1 4 3 -2 6 -13 5 -11 0 -14 -3 -6 -6z"/>
<path d="M778 243 c7 -3 16 -2 19 1 4 3 -2 6 -13 5 -11 0 -14 -3 -6 -6z"/>
<path d="M78 203 c6 -2 18 -2 25 0 6 3 1 5 -13 5 -14 0 -19 -2 -12 -5z"/>
<path d="M2520 141 c0 -10 19 -25 25 -20 1 2 -3 10 -11 17 -8 7 -14 8 -14 3z"/>
</g>
</svg>
